ISO-10303-21;
HEADER;
FILE_DESCRIPTION(('Open CASCADE Model'),'2;1');
FILE_NAME('Open CASCADE Shape Model','2026-08-31T12:46:25',('Author'),(
    'Open CASCADE'),'Open CASCADE STEP processor 7.9','Open CASCADE 7.9'
  ,'Unknown');
FILE_SCHEMA(('AUTOMOTIVE_DESIGN { 1 0 10303 214 1 1 1 1 }'));
ENDSEC;
DATA;
#1 = APPLICATION_PROTOCOL_DEFINITION('international standard',
  'automotive_design',2000,#2);
#2 = APPLICATION_CONTEXT(
  'core data for automotive mechanical design processes');
#3 = SHAPE_DEFINITION_REPRESENTATION(#4,#10);
#4 = PRODUCT_DEFINITION_SHAPE('','',#5);
#5 = PRODUCT_DEFINITION('design','',#6,#9);
#6 = PRODUCT_DEFINITION_FORMATION('','',#7);
#7 = PRODUCT('Open CASCADE STEP translator 7.9 1',
  'Open CASCADE STEP translator 7.9 1','',(#8));
#8 = PRODUCT_CONTEXT('',#2,'mechanical');
#9 = PRODUCT_DEFINITION_CONTEXT('part definition',#2,'design');
#10 = ADVANCED_BREP_SHAPE_REPRESENTATION('',(#11,#15),#553);
#11 = AXIS2_PLACEMENT_3D('',#12,#13,#14);
#12 = CARTESIAN_POINT('',(0.,0.,0.));
#13 = DIRECTION('',(0.,0.,1.));
#14 = DIRECTION('',(1.,0.,-0.));
#15 = MANIFOLD_SOLID_BREP('',#16);
#16 = CLOSED_SHELL('',(#17,#283,#411,#496,#539,#546));
#17 = ADVANCED_FACE('',(#18),#31,.T.);
#18 = FACE_BOUND('',#19,.T.);
#19 = EDGE_LOOP('',(#20,#91,#175,#201));
#20 = ORIENTED_EDGE('',*,*,#21,.T.);
#21 = EDGE_CURVE('',#22,#24,#26,.T.);
#22 = VERTEX_POINT('',#23);
#23 = CARTESIAN_POINT('',(50.047588920907,-25.,-2.180969368267));
#24 = VERTEX_POINT('',#25);
#25 = CARTESIAN_POINT('',(149.95241107909,-25.,2.180969368267));
#26 = SURFACE_CURVE('',#27,(#30,#80),.PCURVE_S1.);
#27 = B_SPLINE_CURVE_WITH_KNOTS('',1,(#28,#29),.UNSPECIFIED.,.F.,.F.,(2,
    2),(0.,1.),.PIECEWISE_BEZIER_KNOTS.);
#28 = CARTESIAN_POINT('',(50.047588920907,-25.,-2.180969368267));
#29 = CARTESIAN_POINT('',(149.95241107909,-25.,2.180969368267));
#30 = PCURVE('',#31,#74);
#31 = ( BOUNDED_SURFACE() B_SPLINE_SURFACE(1,3,(
    (#32,#33,#34,#35,#36,#37,#38,#39,#40,#41,#42,#43,#44,#45,#46,#47,#48
      ,#49,#50,#51,#52)
    ,(#53,#54,#55,#56,#57,#58,#59,#60,#61,#62,#63,#64,#65,#66,#67,#68
      ,#69,#70,#71,#72,#73
)),.UNSPECIFIED.,.F.,.F.,.F.) B_SPLINE_SURFACE_WITH_KNOTS((2,2),(4,1,1,1
    ,1,1,1,1,1,1,1,1,1,1,1,1,1,1,4),(0.,1.),(0.,5.563031149408E-02,
    0.111260622988,0.166890934482,0.222521245976,0.27815155747,
    0.333781868965,0.389412180459,0.445042491953,0.500672803447,
    0.556303114941,0.611933426435,0.667563737929,0.723194049423,
    0.778824360917,0.834454672411,0.890084983905,0.945715295399,1.),
.UNSPECIFIED.) GEOMETRIC_REPRESENTATION_ITEM() RATIONAL_B_SPLINE_SURFACE
((
    (1.,0.999999999978,1.00000000001,0.999999999997,1.000000000001,1.,1.
      ,1.,1.,1.,1.,1.,1.,1.,1.,1.,1.000000000001,0.999999999998
      ,1.000000000007,0.999999999985,1.)
    ,(1.,0.999999999978,1.00000000001,0.999999999997,1.000000000001,1.
      ,1.,1.,1.,1.,1.,1.,1.,1.,1.,1.,1.000000000001,0.999999999998
,1.000000000007,0.999999999985,1.
  ))) REPRESENTATION_ITEM('') SURFACE() );
#32 = CARTESIAN_POINT('',(50.047588920907,-25.,-2.180969368267));
#33 = CARTESIAN_POINT('',(50.110994594176,-25.00000000027,
    -0.725125154513));
#34 = CARTESIAN_POINT('',(50.110805737285,-24.99999999987,2.19203615515)
  );
#35 = CARTESIAN_POINT('',(49.729048471142,-25.00000000003,6.551149171238
    ));
#36 = CARTESIAN_POINT('',(48.968850049489,-24.99999999999,
    10.860389578669));
#37 = CARTESIAN_POINT('',(47.835961879875,-25.,15.086979724308));
#38 = CARTESIAN_POINT('',(46.339015149169,-24.99999999999,
    19.198747809977));
#39 = CARTESIAN_POINT('',(44.489399791973,-25.,23.164402109693));
#40 = CARTESIAN_POINT('',(42.301194209737,-25.,26.953761247205));
#41 = CARTESIAN_POINT('',(39.791047855105,-25.,30.5379860095));
#42 = CARTESIAN_POINT('',(36.978079198193,-25.,33.889798242023));
#43 = CARTESIAN_POINT('',(33.883641779355,-25.,36.983688691301));
#44 = CARTESIAN_POINT('',(30.531490793696,-25.,39.796110776788));
#45 = CARTESIAN_POINT('',(26.946374352442,-25.,42.305661031077));
#46 = CARTESIAN_POINT('',(23.158427826025,-24.99999999999,44.4932374161)
  );
#47 = CARTESIAN_POINT('',(19.185841678349,-25.,46.342201773127));
#48 = CARTESIAN_POINT('',(15.098551604698,-24.99999999998,47.83844273847
    ));
#49 = CARTESIAN_POINT('',(10.779494782932,-25.00000000006,
    48.970720910458));
#50 = CARTESIAN_POINT('',(6.846486979283,-24.99999999978,49.72374617773)
  );
#51 = CARTESIAN_POINT('',(3.142403693148,-25.00000000046,49.978529778278
    ));
#52 = CARTESIAN_POINT('',(-2.180969368267,-25.,50.047588920907));
#53 = CARTESIAN_POINT('',(149.95241107909,-25.,2.180969368267));
#54 = CARTESIAN_POINT('',(149.88885792156,-25.00000000027,6.542958287908
    ));
#55 = CARTESIAN_POINT('',(149.3812447354,-24.99999999987,15.261217861024
    ));
#56 = CARTESIAN_POINT('',(147.48263381095,-25.00000000003,
    28.222603368907));
#57 = CARTESIAN_POINT('',(144.46167396405,-24.99999999999,
    40.969159445063));
#58 = CARTESIAN_POINT('',(140.34125133075,-25.,53.403925763602));
#59 = CARTESIAN_POINT('',(135.15275293786,-24.99999999999,
    65.432253205468));
#60 = CARTESIAN_POINT('',(128.93565909324,-25.,76.962602429455));
#61 = CARTESIAN_POINT('',(121.73728670369,-25.,87.90721958076));
#62 = CARTESIAN_POINT('',(113.61242275276,-25.,98.18280976075));
#63 = CARTESIAN_POINT('',(104.62288919968,-25.,107.71116947286));
#64 = CARTESIAN_POINT('',(94.837151445137,-25.,116.41978210276));
#65 = CARTESIAN_POINT('',(84.329499534312,-25.,124.24237007482));
#66 = CARTESIAN_POINT('',(73.180594732291,-25.,131.11939791518));
#67 = CARTESIAN_POINT('',(61.472705507033,-24.99999999999,
    136.99853048856));
#68 = CARTESIAN_POINT('',(49.304569993522,-25.,141.83501210594));
#69 = CARTESIAN_POINT('',(36.732840365569,-24.99999999998,
    145.59207878365));
#70 = CARTESIAN_POINT('',(23.987379787121,-25.00000000006,
    148.24097066884));
#71 = CARTESIAN_POINT('',(10.771825128904,-24.99999999978,
    149.74988381784));
#72 = CARTESIAN_POINT('',(2.903493280295,-25.00000000046,150.00896387632
    ));
#73 = CARTESIAN_POINT('',(2.180969368267,-25.,149.95241107909));
#74 = DEFINITIONAL_REPRESENTATION('',(#75),#79);
#75 = LINE('',#76,#77);
#76 = CARTESIAN_POINT('',(0.,0.));
#77 = VECTOR('',#78,1.);
#78 = DIRECTION('',(1.,0.));
#79 = ( GEOMETRIC_REPRESENTATION_CONTEXT(2) 
PARAMETRIC_REPRESENTATION_CONTEXT() REPRESENTATION_CONTEXT('2D SPACE',''
  ) );
#80 = PCURVE('',#81,#86);
#81 = PLANE('',#82);
#82 = AXIS2_PLACEMENT_3D('',#83,#84,#85);
#83 = CARTESIAN_POINT('',(50.047588920907,-25.,-2.180969368267));
#84 = DIRECTION('',(4.361938736534E-02,0.,-0.999048221582));
#85 = DIRECTION('',(0.893575894503,0.4472135955,3.901436611431E-02));
#86 = DEFINITIONAL_REPRESENTATION('',(#87),#90);
#87 = B_SPLINE_CURVE_WITH_KNOTS('',1,(#88,#89),.UNSPECIFIED.,.F.,.F.,(2,
    2),(0.,1.),.PIECEWISE_BEZIER_KNOTS.);
#88 = CARTESIAN_POINT('',(0.,0.));
#89 = CARTESIAN_POINT('',(89.442719099992,44.721359549996));
#90 = ( GEOMETRIC_REPRESENTATION_CONTEXT(2) 
PARAMETRIC_REPRESENTATION_CONTEXT() REPRESENTATION_CONTEXT('2D SPACE',''
  ) );
#91 = ORIENTED_EDGE('',*,*,#92,.T.);
#92 = EDGE_CURVE('',#24,#93,#95,.T.);
#93 = VERTEX_POINT('',#94);
#94 = CARTESIAN_POINT('',(2.180969368267,-25.,149.95241107909));
#95 = SURFACE_CURVE('',#96,(#118,#125),.PCURVE_S1.);
#96 = ( BOUNDED_CURVE() B_SPLINE_CURVE(3,(#97,#98,#99,#100,#101,#102,
    #103,#104,#105,#106,#107,#108,#109,#110,#111,#112,#113,#114,#115,
#116,#117),.UNSPECIFIED.,.F.,.F.) B_SPLINE_CURVE_WITH_KNOTS((4,1,1,1,1,1
    ,1,1,1,1,1,1,1,1,1,1,1,1,4),(0.,5.563031149408E-02,0.111260622988,
    0.166890934482,0.222521245976,0.27815155747,0.333781868965,
    0.389412180459,0.445042491953,0.500672803447,0.556303114941,
    0.611933426435,0.667563737929,0.723194049423,0.778824360917,
    0.834454672411,0.890084983905,0.945715295399,1.),.UNSPECIFIED.) 
CURVE() GEOMETRIC_REPRESENTATION_ITEM() RATIONAL_B_SPLINE_CURVE((1.,
    0.999999999978,1.00000000001,0.999999999997,1.000000000001,1.,1.,1.,
    1.,1.,1.,1.,1.,1.,1.,1.,1.000000000001,0.999999999998,1.000000000007
,0.999999999985,1.)) REPRESENTATION_ITEM('') );
#97 = CARTESIAN_POINT('',(149.95241107909,-25.,2.180969368267));
#98 = CARTESIAN_POINT('',(149.88885792156,-25.00000000027,6.542958287908
    ));
#99 = CARTESIAN_POINT('',(149.3812447354,-24.99999999987,15.261217861024
    ));
#100 = CARTESIAN_POINT('',(147.48263381095,-25.00000000003,
    28.222603368907));
#101 = CARTESIAN_POINT('',(144.46167396405,-24.99999999999,
    40.969159445063));
#102 = CARTESIAN_POINT('',(140.34125133075,-25.,53.403925763602));
#103 = CARTESIAN_POINT('',(135.15275293786,-24.99999999999,
    65.432253205468));
#104 = CARTESIAN_POINT('',(128.93565909324,-25.,76.962602429455));
#105 = CARTESIAN_POINT('',(121.73728670369,-25.,87.90721958076));
#106 = CARTESIAN_POINT('',(113.61242275276,-25.,98.18280976075));
#107 = CARTESIAN_POINT('',(104.62288919968,-25.,107.71116947286));
#108 = CARTESIAN_POINT('',(94.837151445137,-25.,116.41978210276));
#109 = CARTESIAN_POINT('',(84.329499534312,-25.,124.24237007482));
#110 = CARTESIAN_POINT('',(73.180594732291,-25.,131.11939791518));
#111 = CARTESIAN_POINT('',(61.472705507033,-24.99999999999,
    136.99853048856));
#112 = CARTESIAN_POINT('',(49.304569993522,-25.,141.83501210594));
#113 = CARTESIAN_POINT('',(36.732840365569,-24.99999999998,
    145.59207878365));
#114 = CARTESIAN_POINT('',(23.987379787121,-25.00000000006,
    148.24097066884));
#115 = CARTESIAN_POINT('',(10.771825128904,-24.99999999978,
    149.74988381784));
#116 = CARTESIAN_POINT('',(2.903493280295,-25.00000000046,
    150.00896387632));
#117 = CARTESIAN_POINT('',(2.180969368267,-25.,149.95241107909));
#118 = PCURVE('',#31,#119);
#119 = DEFINITIONAL_REPRESENTATION('',(#120),#124);
#120 = LINE('',#121,#122);
#121 = CARTESIAN_POINT('',(1.,0.));
#122 = VECTOR('',#123,1.);
#123 = DIRECTION('',(0.,1.));
#124 = ( GEOMETRIC_REPRESENTATION_CONTEXT(2) 
PARAMETRIC_REPRESENTATION_CONTEXT() REPRESENTATION_CONTEXT('2D SPACE',''
  ) );
#125 = PCURVE('',#126,#169);
#126 = ( BOUNDED_SURFACE() B_SPLINE_SURFACE(1,3,(
    (#127,#128,#129,#130,#131,#132,#133,#134,#135,#136,#137,#138,#139
      ,#140,#141,#142,#143,#144,#145,#146,#147)
    ,(#148,#149,#150,#151,#152,#153,#154,#155,#156,#157,#158,#159,#160
      ,#161,#162,#163,#164,#165,#166,#167,#168
)),.UNSPECIFIED.,.F.,.F.,.F.) B_SPLINE_SURFACE_WITH_KNOTS((2,2),(4,1,1,1
    ,1,1,1,1,1,1,1,1,1,1,1,1,1,1,4),(1.,2.),(0.,5.563031149408E-02,
    0.111260622988,0.166890934482,0.222521245976,0.27815155747,
    0.333781868965,0.389412180459,0.445042491953,0.500672803447,
    0.556303114941,0.611933426435,0.667563737929,0.723194049423,
    0.778824360917,0.834454672411,0.890084983905,0.945715295399,1.),
.UNSPECIFIED.) GEOMETRIC_REPRESENTATION_ITEM() RATIONAL_B_SPLINE_SURFACE
((
    (1.,0.999999999978,1.00000000001,0.999999999997,1.000000000001,1.,1.
      ,1.,1.,1.,1.,1.,1.,1.,1.,1.,1.000000000001,0.999999999998
      ,1.000000000007,0.999999999985,1.)
    ,(1.,0.999999999978,1.00000000001,0.999999999997,1.000000000001,1.
      ,1.,1.,1.,1.,1.,1.,1.,1.,1.,1.,1.000000000001,0.999999999998
,1.000000000007,0.999999999985,1.
  ))) REPRESENTATION_ITEM('') SURFACE() );
#127 = CARTESIAN_POINT('',(149.95241107909,-25.,2.180969368267));
#128 = CARTESIAN_POINT('',(149.88885792156,-25.00000000027,
    6.542958287908));
#129 = CARTESIAN_POINT('',(149.3812447354,-24.99999999987,
    15.261217861024));
#130 = CARTESIAN_POINT('',(147.48263381095,-25.00000000003,
    28.222603368907));
#131 = CARTESIAN_POINT('',(144.46167396405,-24.99999999999,
    40.969159445063));
#132 = CARTESIAN_POINT('',(140.34125133075,-25.,53.403925763602));
#133 = CARTESIAN_POINT('',(135.15275293786,-24.99999999999,
    65.432253205468));
#134 = CARTESIAN_POINT('',(128.93565909324,-25.,76.962602429455));
#135 = CARTESIAN_POINT('',(121.73728670369,-25.,87.90721958076));
#136 = CARTESIAN_POINT('',(113.61242275276,-25.,98.18280976075));
#137 = CARTESIAN_POINT('',(104.62288919968,-25.,107.71116947286));
#138 = CARTESIAN_POINT('',(94.837151445137,-25.,116.41978210276));
#139 = CARTESIAN_POINT('',(84.329499534312,-25.,124.24237007482));
#140 = CARTESIAN_POINT('',(73.180594732291,-25.,131.11939791518));
#141 = CARTESIAN_POINT('',(61.472705507033,-24.99999999999,
    136.99853048856));
#142 = CARTESIAN_POINT('',(49.304569993522,-25.,141.83501210594));
#143 = CARTESIAN_POINT('',(36.732840365569,-24.99999999998,
    145.59207878365));
#144 = CARTESIAN_POINT('',(23.987379787121,-25.00000000006,
    148.24097066884));
#145 = CARTESIAN_POINT('',(10.771825128904,-24.99999999978,
    149.74988381784));
#146 = CARTESIAN_POINT('',(2.903493280295,-25.00000000046,
    150.00896387632));
#147 = CARTESIAN_POINT('',(2.180969368267,-25.,149.95241107909));
#148 = CARTESIAN_POINT('',(149.95241107909,25.,2.180969368267));
#149 = CARTESIAN_POINT('',(149.88885792156,25.000000000277,
    6.542958287908));
#150 = CARTESIAN_POINT('',(149.3812447354,24.999999999872,
    15.261217861024));
#151 = CARTESIAN_POINT('',(147.48263381095,25.000000000034,
    28.222603368907));
#152 = CARTESIAN_POINT('',(144.46167396405,24.999999999991,
    40.969159445063));
#153 = CARTESIAN_POINT('',(140.34125133075,25.000000000002,
    53.403925763602));
#154 = CARTESIAN_POINT('',(135.15275293786,24.999999999999,
    65.432253205468));
#155 = CARTESIAN_POINT('',(128.93565909324,25.,76.962602429455));
#156 = CARTESIAN_POINT('',(121.73728670369,25.,87.90721958076));
#157 = CARTESIAN_POINT('',(113.61242275276,25.,98.18280976075));
#158 = CARTESIAN_POINT('',(104.62288919968,25.,107.71116947286));
#159 = CARTESIAN_POINT('',(94.837151445137,25.,116.41978210276));
#160 = CARTESIAN_POINT('',(84.329499534312,25.,124.24237007482));
#161 = CARTESIAN_POINT('',(73.180594732291,25.,131.11939791518));
#162 = CARTESIAN_POINT('',(61.472705507033,24.999999999999,
    136.99853048856));
#163 = CARTESIAN_POINT('',(49.304569993522,25.000000000004,
    141.83501210594));
#164 = CARTESIAN_POINT('',(36.732840365569,24.999999999984,
    145.59207878365));
#165 = CARTESIAN_POINT('',(23.987379787121,25.00000000006,
    148.24097066884));
#166 = CARTESIAN_POINT('',(10.771825128904,24.99999999978,
    149.74988381784));
#167 = CARTESIAN_POINT('',(2.903493280295,25.000000000462,
    150.00896387632));
#168 = CARTESIAN_POINT('',(2.180969368267,25.,149.95241107909));
#169 = DEFINITIONAL_REPRESENTATION('',(#170),#174);
#170 = LINE('',#171,#172);
#171 = CARTESIAN_POINT('',(1.,0.));
#172 = VECTOR('',#173,1.);
#173 = DIRECTION('',(0.,1.));
#174 = ( GEOMETRIC_REPRESENTATION_CONTEXT(2) 
PARAMETRIC_REPRESENTATION_CONTEXT() REPRESENTATION_CONTEXT('2D SPACE',''
  ) );
#175 = ORIENTED_EDGE('',*,*,#176,.F.);
#176 = EDGE_CURVE('',#177,#93,#179,.T.);
#177 = VERTEX_POINT('',#178);
#178 = CARTESIAN_POINT('',(-2.180969368267,-25.,50.047588920907));
#179 = SURFACE_CURVE('',#180,(#183,#190),.PCURVE_S1.);
#180 = B_SPLINE_CURVE_WITH_KNOTS('',1,(#181,#182),.UNSPECIFIED.,.F.,.F.,
  (2,2),(0.,1.),.PIECEWISE_BEZIER_KNOTS.);
#181 = CARTESIAN_POINT('',(-2.180969368267,-25.,50.047588920907));
#182 = CARTESIAN_POINT('',(2.180969368267,-25.,149.95241107909));
#183 = PCURVE('',#31,#184);
#184 = DEFINITIONAL_REPRESENTATION('',(#185),#189);
#185 = LINE('',#186,#187);
#186 = CARTESIAN_POINT('',(0.,1.));
#187 = VECTOR('',#188,1.);
#188 = DIRECTION('',(1.,0.));
#189 = ( GEOMETRIC_REPRESENTATION_CONTEXT(2) 
PARAMETRIC_REPRESENTATION_CONTEXT() REPRESENTATION_CONTEXT('2D SPACE',''
  ) );
#190 = PCURVE('',#191,#196);
#191 = PLANE('',#192);
#192 = AXIS2_PLACEMENT_3D('',#193,#194,#195);
#193 = CARTESIAN_POINT('',(-2.180969368267,-25.,50.047588920907));
#194 = DIRECTION('',(0.999048221582,0.,-4.361938736534E-02));
#195 = DIRECTION('',(3.901436611431E-02,0.4472135955,0.893575894503));
#196 = DEFINITIONAL_REPRESENTATION('',(#197),#200);
#197 = B_SPLINE_CURVE_WITH_KNOTS('',1,(#198,#199),.UNSPECIFIED.,.F.,.F.,
  (2,2),(0.,1.),.PIECEWISE_BEZIER_KNOTS.);
#198 = CARTESIAN_POINT('',(0.,0.));
#199 = CARTESIAN_POINT('',(89.442719099992,44.721359549996));
#200 = ( GEOMETRIC_REPRESENTATION_CONTEXT(2) 
PARAMETRIC_REPRESENTATION_CONTEXT() REPRESENTATION_CONTEXT('2D SPACE',''
  ) );
#201 = ORIENTED_EDGE('',*,*,#202,.F.);
#202 = EDGE_CURVE('',#22,#177,#203,.T.);
#203 = SURFACE_CURVE('',#204,(#226,#233),.PCURVE_S1.);
#204 = ( BOUNDED_CURVE() B_SPLINE_CURVE(3,(#205,#206,#207,#208,#209,#210
    ,#211,#212,#213,#214,#215,#216,#217,#218,#219,#220,#221,#222,#223,
#224,#225),.UNSPECIFIED.,.F.,.F.) B_SPLINE_CURVE_WITH_KNOTS((4,1,1,1,1,1
    ,1,1,1,1,1,1,1,1,1,1,1,1,4),(0.,5.563031149408E-02,0.111260622988,
    0.166890934482,0.222521245976,0.27815155747,0.333781868965,
    0.389412180459,0.445042491953,0.500672803447,0.556303114941,
    0.611933426435,0.667563737929,0.723194049423,0.778824360917,
    0.834454672411,0.890084983905,0.945715295399,1.),.UNSPECIFIED.) 
CURVE() GEOMETRIC_REPRESENTATION_ITEM() RATIONAL_B_SPLINE_CURVE((1.,
    0.999999999978,1.00000000001,0.999999999997,1.000000000001,1.,1.,1.,
    1.,1.,1.,1.,1.,1.,1.,1.,1.000000000001,0.999999999998,1.000000000007
,0.999999999985,1.)) REPRESENTATION_ITEM('') );
#205 = CARTESIAN_POINT('',(50.047588920907,-25.,-2.180969368267));
#206 = CARTESIAN_POINT('',(50.110994594176,-25.00000000027,
    -0.725125154513));
#207 = CARTESIAN_POINT('',(50.110805737285,-24.99999999987,2.19203615515
    ));
#208 = CARTESIAN_POINT('',(49.729048471142,-25.00000000003,
    6.551149171238));
#209 = CARTESIAN_POINT('',(48.968850049489,-24.99999999999,
    10.860389578669));
#210 = CARTESIAN_POINT('',(47.835961879875,-25.,15.086979724308));
#211 = CARTESIAN_POINT('',(46.339015149169,-24.99999999999,
    19.198747809977));
#212 = CARTESIAN_POINT('',(44.489399791973,-25.,23.164402109693));
#213 = CARTESIAN_POINT('',(42.301194209737,-25.,26.953761247205));
#214 = CARTESIAN_POINT('',(39.791047855105,-25.,30.5379860095));
#215 = CARTESIAN_POINT('',(36.978079198193,-25.,33.889798242023));
#216 = CARTESIAN_POINT('',(33.883641779355,-25.,36.983688691301));
#217 = CARTESIAN_POINT('',(30.531490793696,-25.,39.796110776788));
#218 = CARTESIAN_POINT('',(26.946374352442,-25.,42.305661031077));
#219 = CARTESIAN_POINT('',(23.158427826025,-24.99999999999,44.4932374161
    ));
#220 = CARTESIAN_POINT('',(19.185841678349,-25.,46.342201773127));
#221 = CARTESIAN_POINT('',(15.098551604698,-24.99999999998,
    47.83844273847));
#222 = CARTESIAN_POINT('',(10.779494782932,-25.00000000006,
    48.970720910458));
#223 = CARTESIAN_POINT('',(6.846486979283,-24.99999999978,49.72374617773
    ));
#224 = CARTESIAN_POINT('',(3.142403693148,-25.00000000046,
    49.978529778278));
#225 = CARTESIAN_POINT('',(-2.180969368267,-25.,50.047588920907));
#226 = PCURVE('',#31,#227);
#227 = DEFINITIONAL_REPRESENTATION('',(#228),#232);
#228 = LINE('',#229,#230);
#229 = CARTESIAN_POINT('',(0.,0.));
#230 = VECTOR('',#231,1.);
#231 = DIRECTION('',(0.,1.));
#232 = ( GEOMETRIC_REPRESENTATION_CONTEXT(2) 
PARAMETRIC_REPRESENTATION_CONTEXT() REPRESENTATION_CONTEXT('2D SPACE',''
  ) );
#233 = PCURVE('',#234,#277);
#234 = ( BOUNDED_SURFACE() B_SPLINE_SURFACE(1,3,(
    (#235,#236,#237,#238,#239,#240,#241,#242,#243,#244,#245,#246,#247
      ,#248,#249,#250,#251,#252,#253,#254,#255)
    ,(#256,#257,#258,#259,#260,#261,#262,#263,#264,#265,#266,#267,#268
      ,#269,#270,#271,#272,#273,#274,#275,#276
)),.UNSPECIFIED.,.F.,.F.,.F.) B_SPLINE_SURFACE_WITH_KNOTS((2,2),(4,1,1,1
    ,1,1,1,1,1,1,1,1,1,1,1,1,1,1,4),(3.,4.),(0.,5.563031149408E-02,
    0.111260622988,0.166890934482,0.222521245976,0.27815155747,
    0.333781868965,0.389412180459,0.445042491953,0.500672803447,
    0.556303114941,0.611933426435,0.667563737929,0.723194049423,
    0.778824360917,0.834454672411,0.890084983905,0.945715295399,1.),
.UNSPECIFIED.) GEOMETRIC_REPRESENTATION_ITEM() RATIONAL_B_SPLINE_SURFACE
((
    (1.,0.999999999978,1.00000000001,0.999999999997,1.000000000001,1.,1.
      ,1.,1.,1.,1.,1.,1.,1.,1.,1.,1.000000000001,0.999999999998
      ,1.000000000007,0.999999999985,1.)
    ,(1.,0.999999999978,1.00000000001,0.999999999997,1.000000000001,1.
      ,1.,1.,1.,1.,1.,1.,1.,1.,1.,1.,1.000000000001,0.999999999998
,1.000000000007,0.999999999985,1.
  ))) REPRESENTATION_ITEM('') SURFACE() );
#235 = CARTESIAN_POINT('',(50.047588920907,25.,-2.180969368267));
#236 = CARTESIAN_POINT('',(50.110994594176,25.000000000277,
    -0.725125154513));
#237 = CARTESIAN_POINT('',(50.110805737285,24.999999999872,2.19203615515
    ));
#238 = CARTESIAN_POINT('',(49.729048471142,25.000000000034,
    6.551149171238));
#239 = CARTESIAN_POINT('',(48.968850049489,24.999999999991,
    10.860389578669));
#240 = CARTESIAN_POINT('',(47.835961879875,25.000000000002,
    15.086979724308));
#241 = CARTESIAN_POINT('',(46.339015149169,24.999999999999,
    19.198747809977));
#242 = CARTESIAN_POINT('',(44.489399791973,25.,23.164402109693));
#243 = CARTESIAN_POINT('',(42.301194209737,25.,26.953761247205));
#244 = CARTESIAN_POINT('',(39.791047855105,25.,30.5379860095));
#245 = CARTESIAN_POINT('',(36.978079198193,25.,33.889798242023));
#246 = CARTESIAN_POINT('',(33.883641779355,25.,36.983688691301));
#247 = CARTESIAN_POINT('',(30.531490793696,25.,39.796110776788));
#248 = CARTESIAN_POINT('',(26.946374352442,25.,42.305661031077));
#249 = CARTESIAN_POINT('',(23.158427826025,24.999999999999,44.4932374161
    ));
#250 = CARTESIAN_POINT('',(19.185841678349,25.000000000004,
    46.342201773127));
#251 = CARTESIAN_POINT('',(15.098551604698,24.999999999984,
    47.83844273847));
#252 = CARTESIAN_POINT('',(10.779494782932,25.00000000006,
    48.970720910458));
#253 = CARTESIAN_POINT('',(6.846486979283,24.99999999978,49.72374617773)
  );
#254 = CARTESIAN_POINT('',(3.142403693148,25.000000000462,
    49.978529778278));
#255 = CARTESIAN_POINT('',(-2.180969368267,25.,50.047588920907));
#256 = CARTESIAN_POINT('',(50.047588920907,-25.,-2.180969368267));
#257 = CARTESIAN_POINT('',(50.110994594176,-25.00000000027,
    -0.725125154513));
#258 = CARTESIAN_POINT('',(50.110805737285,-24.99999999987,2.19203615515
    ));
#259 = CARTESIAN_POINT('',(49.729048471142,-25.00000000003,
    6.551149171238));
#260 = CARTESIAN_POINT('',(48.968850049489,-24.99999999999,
    10.860389578669));
#261 = CARTESIAN_POINT('',(47.835961879875,-25.,15.086979724308));
#262 = CARTESIAN_POINT('',(46.339015149169,-24.99999999999,
    19.198747809977));
#263 = CARTESIAN_POINT('',(44.489399791973,-25.,23.164402109693));
#264 = CARTESIAN_POINT('',(42.301194209737,-25.,26.953761247205));
#265 = CARTESIAN_POINT('',(39.791047855105,-25.,30.5379860095));
#266 = CARTESIAN_POINT('',(36.978079198193,-25.,33.889798242023));
#267 = CARTESIAN_POINT('',(33.883641779355,-25.,36.983688691301));
#268 = CARTESIAN_POINT('',(30.531490793696,-25.,39.796110776788));
#269 = CARTESIAN_POINT('',(26.946374352442,-25.,42.305661031077));
#270 = CARTESIAN_POINT('',(23.158427826025,-24.99999999999,44.4932374161
    ));
#271 = CARTESIAN_POINT('',(19.185841678349,-25.,46.342201773127));
#272 = CARTESIAN_POINT('',(15.098551604698,-24.99999999998,
    47.83844273847));
#273 = CARTESIAN_POINT('',(10.779494782932,-25.00000000006,
    48.970720910458));
#274 = CARTESIAN_POINT('',(6.846486979283,-24.99999999978,49.72374617773
    ));
#275 = CARTESIAN_POINT('',(3.142403693148,-25.00000000046,
    49.978529778278));
#276 = CARTESIAN_POINT('',(-2.180969368267,-25.,50.047588920907));
#277 = DEFINITIONAL_REPRESENTATION('',(#278),#282);
#278 = LINE('',#279,#280);
#279 = CARTESIAN_POINT('',(4.,0.));
#280 = VECTOR('',#281,1.);
#281 = DIRECTION('',(0.,1.));
#282 = ( GEOMETRIC_REPRESENTATION_CONTEXT(2) 
PARAMETRIC_REPRESENTATION_CONTEXT() REPRESENTATION_CONTEXT('2D SPACE',''
  ) );
#283 = ADVANCED_FACE('',(#284),#126,.T.);
#284 = FACE_BOUND('',#285,.T.);
#285 = EDGE_LOOP('',(#286,#307,#391,#410));
#286 = ORIENTED_EDGE('',*,*,#287,.T.);
#287 = EDGE_CURVE('',#24,#288,#290,.T.);
#288 = VERTEX_POINT('',#289);
#289 = CARTESIAN_POINT('',(149.95241107909,25.,2.180969368267));
#290 = SURFACE_CURVE('',#291,(#294,#301),.PCURVE_S1.);
#291 = B_SPLINE_CURVE_WITH_KNOTS('',1,(#292,#293),.UNSPECIFIED.,.F.,.F.,
  (2,2),(1.,2.),.PIECEWISE_BEZIER_KNOTS.);
#292 = CARTESIAN_POINT('',(149.95241107909,-25.,2.180969368267));
#293 = CARTESIAN_POINT('',(149.95241107909,25.,2.180969368267));
#294 = PCURVE('',#126,#295);
#295 = DEFINITIONAL_REPRESENTATION('',(#296),#300);
#296 = LINE('',#297,#298);
#297 = CARTESIAN_POINT('',(0.,0.));
#298 = VECTOR('',#299,1.);
#299 = DIRECTION('',(1.,0.));
#300 = ( GEOMETRIC_REPRESENTATION_CONTEXT(2) 
PARAMETRIC_REPRESENTATION_CONTEXT() REPRESENTATION_CONTEXT('2D SPACE',''
  ) );
#301 = PCURVE('',#81,#302);
#302 = DEFINITIONAL_REPRESENTATION('',(#303),#306);
#303 = B_SPLINE_CURVE_WITH_KNOTS('',1,(#304,#305),.UNSPECIFIED.,.F.,.F.,
  (2,2),(1.,2.),.PIECEWISE_BEZIER_KNOTS.);
#304 = CARTESIAN_POINT('',(89.442719099992,44.721359549996));
#305 = CARTESIAN_POINT('',(111.80339887498,7.105427357601E-15));
#306 = ( GEOMETRIC_REPRESENTATION_CONTEXT(2) 
PARAMETRIC_REPRESENTATION_CONTEXT() REPRESENTATION_CONTEXT('2D SPACE',''
  ) );
#307 = ORIENTED_EDGE('',*,*,#308,.T.);
#308 = EDGE_CURVE('',#288,#309,#311,.T.);
#309 = VERTEX_POINT('',#310);
#310 = CARTESIAN_POINT('',(2.180969368267,25.,149.95241107909));
#311 = SURFACE_CURVE('',#312,(#334,#341),.PCURVE_S1.);
#312 = ( BOUNDED_CURVE() B_SPLINE_CURVE(3,(#313,#314,#315,#316,#317,#318
    ,#319,#320,#321,#322,#323,#324,#325,#326,#327,#328,#329,#330,#331,
#332,#333),.UNSPECIFIED.,.F.,.F.) B_SPLINE_CURVE_WITH_KNOTS((4,1,1,1,1,1
    ,1,1,1,1,1,1,1,1,1,1,1,1,4),(0.,5.563031149408E-02,0.111260622988,
    0.166890934482,0.222521245976,0.27815155747,0.333781868965,
    0.389412180459,0.445042491953,0.500672803447,0.556303114941,
    0.611933426435,0.667563737929,0.723194049423,0.778824360917,
    0.834454672411,0.890084983905,0.945715295399,1.),.UNSPECIFIED.) 
CURVE() GEOMETRIC_REPRESENTATION_ITEM() RATIONAL_B_SPLINE_CURVE((1.,
    0.999999999978,1.00000000001,0.999999999997,1.000000000001,1.,1.,1.,
    1.,1.,1.,1.,1.,1.,1.,1.,1.000000000001,0.999999999998,1.000000000007
,0.999999999985,1.)) REPRESENTATION_ITEM('') );
#313 = CARTESIAN_POINT('',(149.95241107909,25.,2.180969368267));
#314 = CARTESIAN_POINT('',(149.88885792156,25.000000000277,
    6.542958287908));
#315 = CARTESIAN_POINT('',(149.3812447354,24.999999999872,
    15.261217861024));
#316 = CARTESIAN_POINT('',(147.48263381095,25.000000000034,
    28.222603368907));
#317 = CARTESIAN_POINT('',(144.46167396405,24.999999999991,
    40.969159445063));
#318 = CARTESIAN_POINT('',(140.34125133075,25.000000000002,
    53.403925763602));
#319 = CARTESIAN_POINT('',(135.15275293786,24.999999999999,
    65.432253205468));
#320 = CARTESIAN_POINT('',(128.93565909324,25.,76.962602429455));
#321 = CARTESIAN_POINT('',(121.73728670369,25.,87.90721958076));
#322 = CARTESIAN_POINT('',(113.61242275276,25.,98.18280976075));
#323 = CARTESIAN_POINT('',(104.62288919968,25.,107.71116947286));
#324 = CARTESIAN_POINT('',(94.837151445137,25.,116.41978210276));
#325 = CARTESIAN_POINT('',(84.329499534312,25.,124.24237007482));
#326 = CARTESIAN_POINT('',(73.180594732291,25.,131.11939791518));
#327 = CARTESIAN_POINT('',(61.472705507033,24.999999999999,
    136.99853048856));
#328 = CARTESIAN_POINT('',(49.304569993522,25.000000000004,
    141.83501210594));
#329 = CARTESIAN_POINT('',(36.732840365569,24.999999999984,
    145.59207878365));
#330 = CARTESIAN_POINT('',(23.987379787121,25.00000000006,
    148.24097066884));
#331 = CARTESIAN_POINT('',(10.771825128904,24.99999999978,
    149.74988381784));
#332 = CARTESIAN_POINT('',(2.903493280295,25.000000000462,
    150.00896387632));
#333 = CARTESIAN_POINT('',(2.180969368267,25.,149.95241107909));
#334 = PCURVE('',#126,#335);
#335 = DEFINITIONAL_REPRESENTATION('',(#336),#340);
#336 = LINE('',#337,#338);
#337 = CARTESIAN_POINT('',(2.,0.));
#338 = VECTOR('',#339,1.);
#339 = DIRECTION('',(0.,1.));
#340 = ( GEOMETRIC_REPRESENTATION_CONTEXT(2) 
PARAMETRIC_REPRESENTATION_CONTEXT() REPRESENTATION_CONTEXT('2D SPACE',''
  ) );
#341 = PCURVE('',#342,#385);
#342 = ( BOUNDED_SURFACE() B_SPLINE_SURFACE(1,3,(
    (#343,#344,#345,#346,#347,#348,#349,#350,#351,#352,#353,#354,#355
      ,#356,#357,#358,#359,#360,#361,#362,#363)
    ,(#364,#365,#366,#367,#368,#369,#370,#371,#372,#373,#374,#375,#376
      ,#377,#378,#379,#380,#381,#382,#383,#384
)),.UNSPECIFIED.,.F.,.F.,.F.) B_SPLINE_SURFACE_WITH_KNOTS((2,2),(4,1,1,1
    ,1,1,1,1,1,1,1,1,1,1,1,1,1,1,4),(2.,3.),(0.,5.563031149408E-02,
    0.111260622988,0.166890934482,0.222521245976,0.27815155747,
    0.333781868965,0.389412180459,0.445042491953,0.500672803447,
    0.556303114941,0.611933426435,0.667563737929,0.723194049423,
    0.778824360917,0.834454672411,0.890084983905,0.945715295399,1.),
.UNSPECIFIED.) GEOMETRIC_REPRESENTATION_ITEM() RATIONAL_B_SPLINE_SURFACE
((
    (1.,0.999999999978,1.00000000001,0.999999999997,1.000000000001,1.,1.
      ,1.,1.,1.,1.,1.,1.,1.,1.,1.,1.000000000001,0.999999999998
      ,1.000000000007,0.999999999985,1.)
    ,(1.,0.999999999978,1.00000000001,0.999999999997,1.000000000001,1.
      ,1.,1.,1.,1.,1.,1.,1.,1.,1.,1.,1.000000000001,0.999999999998
,1.000000000007,0.999999999985,1.
  ))) REPRESENTATION_ITEM('') SURFACE() );
#343 = CARTESIAN_POINT('',(149.95241107909,25.,2.180969368267));
#344 = CARTESIAN_POINT('',(149.88885792156,25.000000000277,
    6.542958287908));
#345 = CARTESIAN_POINT('',(149.3812447354,24.999999999872,
    15.261217861024));
#346 = CARTESIAN_POINT('',(147.48263381095,25.000000000034,
    28.222603368907));
#347 = CARTESIAN_POINT('',(144.46167396405,24.999999999991,
    40.969159445063));
#348 = CARTESIAN_POINT('',(140.34125133075,25.000000000002,
    53.403925763602));
#349 = CARTESIAN_POINT('',(135.15275293786,24.999999999999,
    65.432253205468));
#350 = CARTESIAN_POINT('',(128.93565909324,25.,76.962602429455));
#351 = CARTESIAN_POINT('',(121.73728670369,25.,87.90721958076));
#352 = CARTESIAN_POINT('',(113.61242275276,25.,98.18280976075));
#353 = CARTESIAN_POINT('',(104.62288919968,25.,107.71116947286));
#354 = CARTESIAN_POINT('',(94.837151445137,25.,116.41978210276));
#355 = CARTESIAN_POINT('',(84.329499534312,25.,124.24237007482));
#356 = CARTESIAN_POINT('',(73.180594732291,25.,131.11939791518));
#357 = CARTESIAN_POINT('',(61.472705507033,24.999999999999,
    136.99853048856));
#358 = CARTESIAN_POINT('',(49.304569993522,25.000000000004,
    141.83501210594));
#359 = CARTESIAN_POINT('',(36.732840365569,24.999999999984,
    145.59207878365));
#360 = CARTESIAN_POINT('',(23.987379787121,25.00000000006,
    148.24097066884));
#361 = CARTESIAN_POINT('',(10.771825128904,24.99999999978,
    149.74988381784));
#362 = CARTESIAN_POINT('',(2.903493280295,25.000000000462,
    150.00896387632));
#363 = CARTESIAN_POINT('',(2.180969368267,25.,149.95241107909));
#364 = CARTESIAN_POINT('',(50.047588920907,25.,-2.180969368267));
#365 = CARTESIAN_POINT('',(50.110994594176,25.000000000277,
    -0.725125154513));
#366 = CARTESIAN_POINT('',(50.110805737285,24.999999999872,2.19203615515
    ));
#367 = CARTESIAN_POINT('',(49.729048471142,25.000000000034,
    6.551149171238));
#368 = CARTESIAN_POINT('',(48.968850049489,24.999999999991,
    10.860389578669));
#369 = CARTESIAN_POINT('',(47.835961879875,25.000000000002,
    15.086979724308));
#370 = CARTESIAN_POINT('',(46.339015149169,24.999999999999,
    19.198747809977));
#371 = CARTESIAN_POINT('',(44.489399791973,25.,23.164402109693));
#372 = CARTESIAN_POINT('',(42.301194209737,25.,26.953761247205));
#373 = CARTESIAN_POINT('',(39.791047855105,25.,30.5379860095));
#374 = CARTESIAN_POINT('',(36.978079198193,25.,33.889798242023));
#375 = CARTESIAN_POINT('',(33.883641779355,25.,36.983688691301));
#376 = CARTESIAN_POINT('',(30.531490793696,25.,39.796110776788));
#377 = CARTESIAN_POINT('',(26.946374352442,25.,42.305661031077));
#378 = CARTESIAN_POINT('',(23.158427826025,24.999999999999,44.4932374161
    ));
#379 = CARTESIAN_POINT('',(19.185841678349,25.000000000004,
    46.342201773127));
#380 = CARTESIAN_POINT('',(15.098551604698,24.999999999984,
    47.83844273847));
#381 = CARTESIAN_POINT('',(10.779494782932,25.00000000006,
    48.970720910458));
#382 = CARTESIAN_POINT('',(6.846486979283,24.99999999978,49.72374617773)
  );
#383 = CARTESIAN_POINT('',(3.142403693148,25.000000000462,
    49.978529778278));
#384 = CARTESIAN_POINT('',(-2.180969368267,25.,50.047588920907));
#385 = DEFINITIONAL_REPRESENTATION('',(#386),#390);
#386 = LINE('',#387,#388);
#387 = CARTESIAN_POINT('',(2.,0.));
#388 = VECTOR('',#389,1.);
#389 = DIRECTION('',(0.,1.));
#390 = ( GEOMETRIC_REPRESENTATION_CONTEXT(2) 
PARAMETRIC_REPRESENTATION_CONTEXT() REPRESENTATION_CONTEXT('2D SPACE',''
  ) );
#391 = ORIENTED_EDGE('',*,*,#392,.F.);
#392 = EDGE_CURVE('',#93,#309,#393,.T.);
#393 = SURFACE_CURVE('',#394,(#397,#404),.PCURVE_S1.);
#394 = B_SPLINE_CURVE_WITH_KNOTS('',1,(#395,#396),.UNSPECIFIED.,.F.,.F.,
  (2,2),(1.,2.),.PIECEWISE_BEZIER_KNOTS.);
#395 = CARTESIAN_POINT('',(2.180969368267,-25.,149.95241107909));
#396 = CARTESIAN_POINT('',(2.180969368267,25.,149.95241107909));
#397 = PCURVE('',#126,#398);
#398 = DEFINITIONAL_REPRESENTATION('',(#399),#403);
#399 = LINE('',#400,#401);
#400 = CARTESIAN_POINT('',(0.,1.));
#401 = VECTOR('',#402,1.);
#402 = DIRECTION('',(1.,0.));
#403 = ( GEOMETRIC_REPRESENTATION_CONTEXT(2) 
PARAMETRIC_REPRESENTATION_CONTEXT() REPRESENTATION_CONTEXT('2D SPACE',''
  ) );
#404 = PCURVE('',#191,#405);
#405 = DEFINITIONAL_REPRESENTATION('',(#406),#409);
#406 = B_SPLINE_CURVE_WITH_KNOTS('',1,(#407,#408),.UNSPECIFIED.,.F.,.F.,
  (2,2),(1.,2.),.PIECEWISE_BEZIER_KNOTS.);
#407 = CARTESIAN_POINT('',(89.442719099992,44.721359549996));
#408 = CARTESIAN_POINT('',(111.80339887498,0.));
#409 = ( GEOMETRIC_REPRESENTATION_CONTEXT(2) 
PARAMETRIC_REPRESENTATION_CONTEXT() REPRESENTATION_CONTEXT('2D SPACE',''
  ) );
#410 = ORIENTED_EDGE('',*,*,#92,.F.);
#411 = ADVANCED_FACE('',(#412),#342,.T.);
#412 = FACE_BOUND('',#413,.T.);
#413 = EDGE_LOOP('',(#414,#435,#476,#495));
#414 = ORIENTED_EDGE('',*,*,#415,.T.);
#415 = EDGE_CURVE('',#288,#416,#418,.T.);
#416 = VERTEX_POINT('',#417);
#417 = CARTESIAN_POINT('',(50.047588920907,25.,-2.180969368267));
#418 = SURFACE_CURVE('',#419,(#422,#429),.PCURVE_S1.);
#419 = B_SPLINE_CURVE_WITH_KNOTS('',1,(#420,#421),.UNSPECIFIED.,.F.,.F.,
  (2,2),(2.,3.),.PIECEWISE_BEZIER_KNOTS.);
#420 = CARTESIAN_POINT('',(149.95241107909,25.,2.180969368267));
#421 = CARTESIAN_POINT('',(50.047588920907,25.,-2.180969368267));
#422 = PCURVE('',#342,#423);
#423 = DEFINITIONAL_REPRESENTATION('',(#424),#428);
#424 = LINE('',#425,#426);
#425 = CARTESIAN_POINT('',(0.,0.));
#426 = VECTOR('',#427,1.);
#427 = DIRECTION('',(1.,0.));
#428 = ( GEOMETRIC_REPRESENTATION_CONTEXT(2) 
PARAMETRIC_REPRESENTATION_CONTEXT() REPRESENTATION_CONTEXT('2D SPACE',''
  ) );
#429 = PCURVE('',#81,#430);
#430 = DEFINITIONAL_REPRESENTATION('',(#431),#434);
#431 = B_SPLINE_CURVE_WITH_KNOTS('',1,(#432,#433),.UNSPECIFIED.,.F.,.F.,
  (2,2),(2.,3.),.PIECEWISE_BEZIER_KNOTS.);
#432 = CARTESIAN_POINT('',(111.80339887498,7.105427357601E-15));
#433 = CARTESIAN_POINT('',(22.360679774998,-44.72135954999));
#434 = ( GEOMETRIC_REPRESENTATION_CONTEXT(2) 
PARAMETRIC_REPRESENTATION_CONTEXT() REPRESENTATION_CONTEXT('2D SPACE',''
  ) );
#435 = ORIENTED_EDGE('',*,*,#436,.T.);
#436 = EDGE_CURVE('',#416,#437,#439,.T.);
#437 = VERTEX_POINT('',#438);
#438 = CARTESIAN_POINT('',(-2.180969368267,25.,50.047588920907));
#439 = SURFACE_CURVE('',#440,(#462,#469),.PCURVE_S1.);
#440 = ( BOUNDED_CURVE() B_SPLINE_CURVE(3,(#441,#442,#443,#444,#445,#446
    ,#447,#448,#449,#450,#451,#452,#453,#454,#455,#456,#457,#458,#459,
#460,#461),.UNSPECIFIED.,.F.,.F.) B_SPLINE_CURVE_WITH_KNOTS((4,1,1,1,1,1
    ,1,1,1,1,1,1,1,1,1,1,1,1,4),(0.,5.563031149408E-02,0.111260622988,
    0.166890934482,0.222521245976,0.27815155747,0.333781868965,
    0.389412180459,0.445042491953,0.500672803447,0.556303114941,
    0.611933426435,0.667563737929,0.723194049423,0.778824360917,
    0.834454672411,0.890084983905,0.945715295399,1.),.UNSPECIFIED.) 
CURVE() GEOMETRIC_REPRESENTATION_ITEM() RATIONAL_B_SPLINE_CURVE((1.,
    0.999999999978,1.00000000001,0.999999999997,1.000000000001,1.,1.,1.,
    1.,1.,1.,1.,1.,1.,1.,1.,1.000000000001,0.999999999998,1.000000000007
,0.999999999985,1.)) REPRESENTATION_ITEM('') );
#441 = CARTESIAN_POINT('',(50.047588920907,25.,-2.180969368267));
#442 = CARTESIAN_POINT('',(50.110994594176,25.000000000277,
    -0.725125154513));
#443 = CARTESIAN_POINT('',(50.110805737285,24.999999999872,2.19203615515
    ));
#444 = CARTESIAN_POINT('',(49.729048471142,25.000000000034,
    6.551149171238));
#445 = CARTESIAN_POINT('',(48.968850049489,24.999999999991,
    10.860389578669));
#446 = CARTESIAN_POINT('',(47.835961879875,25.000000000002,
    15.086979724308));
#447 = CARTESIAN_POINT('',(46.339015149169,24.999999999999,
    19.198747809977));
#448 = CARTESIAN_POINT('',(44.489399791973,25.,23.164402109693));
#449 = CARTESIAN_POINT('',(42.301194209737,25.,26.953761247205));
#450 = CARTESIAN_POINT('',(39.791047855105,25.,30.5379860095));
#451 = CARTESIAN_POINT('',(36.978079198193,25.,33.889798242023));
#452 = CARTESIAN_POINT('',(33.883641779355,25.,36.983688691301));
#453 = CARTESIAN_POINT('',(30.531490793696,25.,39.796110776788));
#454 = CARTESIAN_POINT('',(26.946374352442,25.,42.305661031077));
#455 = CARTESIAN_POINT('',(23.158427826025,24.999999999999,44.4932374161
    ));
#456 = CARTESIAN_POINT('',(19.185841678349,25.000000000004,
    46.342201773127));
#457 = CARTESIAN_POINT('',(15.098551604698,24.999999999984,
    47.83844273847));
#458 = CARTESIAN_POINT('',(10.779494782932,25.00000000006,
    48.970720910458));
#459 = CARTESIAN_POINT('',(6.846486979283,24.99999999978,49.72374617773)
  );
#460 = CARTESIAN_POINT('',(3.142403693148,25.000000000462,
    49.978529778278));
#461 = CARTESIAN_POINT('',(-2.180969368267,25.,50.047588920907));
#462 = PCURVE('',#342,#463);
#463 = DEFINITIONAL_REPRESENTATION('',(#464),#468);
#464 = LINE('',#465,#466);
#465 = CARTESIAN_POINT('',(3.,0.));
#466 = VECTOR('',#467,1.);
#467 = DIRECTION('',(0.,1.));
#468 = ( GEOMETRIC_REPRESENTATION_CONTEXT(2) 
PARAMETRIC_REPRESENTATION_CONTEXT() REPRESENTATION_CONTEXT('2D SPACE',''
  ) );
#469 = PCURVE('',#234,#470);
#470 = DEFINITIONAL_REPRESENTATION('',(#471),#475);
#471 = LINE('',#472,#473);
#472 = CARTESIAN_POINT('',(3.,0.));
#473 = VECTOR('',#474,1.);
#474 = DIRECTION('',(0.,1.));
#475 = ( GEOMETRIC_REPRESENTATION_CONTEXT(2) 
PARAMETRIC_REPRESENTATION_CONTEXT() REPRESENTATION_CONTEXT('2D SPACE',''
  ) );
#476 = ORIENTED_EDGE('',*,*,#477,.F.);
#477 = EDGE_CURVE('',#309,#437,#478,.T.);
#478 = SURFACE_CURVE('',#479,(#482,#489),.PCURVE_S1.);
#479 = B_SPLINE_CURVE_WITH_KNOTS('',1,(#480,#481),.UNSPECIFIED.,.F.,.F.,
  (2,2),(2.,3.),.PIECEWISE_BEZIER_KNOTS.);
#480 = CARTESIAN_POINT('',(2.180969368267,25.,149.95241107909));
#481 = CARTESIAN_POINT('',(-2.180969368267,25.,50.047588920907));
#482 = PCURVE('',#342,#483);
#483 = DEFINITIONAL_REPRESENTATION('',(#484),#488);
#484 = LINE('',#485,#486);
#485 = CARTESIAN_POINT('',(0.,1.));
#486 = VECTOR('',#487,1.);
#487 = DIRECTION('',(1.,0.));
#488 = ( GEOMETRIC_REPRESENTATION_CONTEXT(2) 
PARAMETRIC_REPRESENTATION_CONTEXT() REPRESENTATION_CONTEXT('2D SPACE',''
  ) );
#489 = PCURVE('',#191,#490);
#490 = DEFINITIONAL_REPRESENTATION('',(#491),#494);
#491 = B_SPLINE_CURVE_WITH_KNOTS('',1,(#492,#493),.UNSPECIFIED.,.F.,.F.,
  (2,2),(2.,3.),.PIECEWISE_BEZIER_KNOTS.);
#492 = CARTESIAN_POINT('',(111.80339887498,0.));
#493 = CARTESIAN_POINT('',(22.360679774998,-44.72135954999));
#494 = ( GEOMETRIC_REPRESENTATION_CONTEXT(2) 
PARAMETRIC_REPRESENTATION_CONTEXT() REPRESENTATION_CONTEXT('2D SPACE',''
  ) );
#495 = ORIENTED_EDGE('',*,*,#308,.F.);
#496 = ADVANCED_FACE('',(#497),#234,.T.);
#497 = FACE_BOUND('',#498,.T.);
#498 = EDGE_LOOP('',(#499,#518,#519,#538));
#499 = ORIENTED_EDGE('',*,*,#500,.T.);
#500 = EDGE_CURVE('',#416,#22,#501,.T.);
#501 = SURFACE_CURVE('',#502,(#505,#512),.PCURVE_S1.);
#502 = B_SPLINE_CURVE_WITH_KNOTS('',1,(#503,#504),.UNSPECIFIED.,.F.,.F.,
  (2,2),(3.,4.),.PIECEWISE_BEZIER_KNOTS.);
#503 = CARTESIAN_POINT('',(50.047588920907,25.,-2.180969368267));
#504 = CARTESIAN_POINT('',(50.047588920907,-25.,-2.180969368267));
#505 = PCURVE('',#234,#506);
#506 = DEFINITIONAL_REPRESENTATION('',(#507),#511);
#507 = LINE('',#508,#509);
#508 = CARTESIAN_POINT('',(0.,0.));
#509 = VECTOR('',#510,1.);
#510 = DIRECTION('',(1.,0.));
#511 = ( GEOMETRIC_REPRESENTATION_CONTEXT(2) 
PARAMETRIC_REPRESENTATION_CONTEXT() REPRESENTATION_CONTEXT('2D SPACE',''
  ) );
#512 = PCURVE('',#81,#513);
#513 = DEFINITIONAL_REPRESENTATION('',(#514),#517);
#514 = B_SPLINE_CURVE_WITH_KNOTS('',1,(#515,#516),.UNSPECIFIED.,.F.,.F.,
  (2,2),(3.,4.),.PIECEWISE_BEZIER_KNOTS.);
#515 = CARTESIAN_POINT('',(22.360679774998,-44.72135954999));
#516 = CARTESIAN_POINT('',(0.,0.));
#517 = ( GEOMETRIC_REPRESENTATION_CONTEXT(2) 
PARAMETRIC_REPRESENTATION_CONTEXT() REPRESENTATION_CONTEXT('2D SPACE',''
  ) );
#518 = ORIENTED_EDGE('',*,*,#202,.T.);
#519 = ORIENTED_EDGE('',*,*,#520,.F.);
#520 = EDGE_CURVE('',#437,#177,#521,.T.);
#521 = SURFACE_CURVE('',#522,(#525,#532),.PCURVE_S1.);
#522 = B_SPLINE_CURVE_WITH_KNOTS('',1,(#523,#524),.UNSPECIFIED.,.F.,.F.,
  (2,2),(3.,4.),.PIECEWISE_BEZIER_KNOTS.);
#523 = CARTESIAN_POINT('',(-2.180969368267,25.,50.047588920907));
#524 = CARTESIAN_POINT('',(-2.180969368267,-25.,50.047588920907));
#525 = PCURVE('',#234,#526);
#526 = DEFINITIONAL_REPRESENTATION('',(#527),#531);
#527 = LINE('',#528,#529);
#528 = CARTESIAN_POINT('',(0.,1.));
#529 = VECTOR('',#530,1.);
#530 = DIRECTION('',(1.,0.));
#531 = ( GEOMETRIC_REPRESENTATION_CONTEXT(2) 
PARAMETRIC_REPRESENTATION_CONTEXT() REPRESENTATION_CONTEXT('2D SPACE',''
  ) );
#532 = PCURVE('',#191,#533);
#533 = DEFINITIONAL_REPRESENTATION('',(#534),#537);
#534 = B_SPLINE_CURVE_WITH_KNOTS('',1,(#535,#536),.UNSPECIFIED.,.F.,.F.,
  (2,2),(3.,4.),.PIECEWISE_BEZIER_KNOTS.);
#535 = CARTESIAN_POINT('',(22.360679774998,-44.72135954999));
#536 = CARTESIAN_POINT('',(0.,0.));
#537 = ( GEOMETRIC_REPRESENTATION_CONTEXT(2) 
PARAMETRIC_REPRESENTATION_CONTEXT() REPRESENTATION_CONTEXT('2D SPACE',''
  ) );
#538 = ORIENTED_EDGE('',*,*,#436,.F.);
#539 = ADVANCED_FACE('',(#540),#81,.T.);
#540 = FACE_BOUND('',#541,.T.);
#541 = EDGE_LOOP('',(#542,#543,#544,#545));
#542 = ORIENTED_EDGE('',*,*,#21,.F.);
#543 = ORIENTED_EDGE('',*,*,#500,.F.);
#544 = ORIENTED_EDGE('',*,*,#415,.F.);
#545 = ORIENTED_EDGE('',*,*,#287,.F.);
#546 = ADVANCED_FACE('',(#547),#191,.F.);
#547 = FACE_BOUND('',#548,.T.);
#548 = EDGE_LOOP('',(#549,#550,#551,#552));
#549 = ORIENTED_EDGE('',*,*,#176,.T.);
#550 = ORIENTED_EDGE('',*,*,#392,.T.);
#551 = ORIENTED_EDGE('',*,*,#477,.T.);
#552 = ORIENTED_EDGE('',*,*,#520,.T.);
#553 = ( GEOMETRIC_REPRESENTATION_CONTEXT(3) 
GLOBAL_UNCERTAINTY_ASSIGNED_CONTEXT((#557)) GLOBAL_UNIT_ASSIGNED_CONTEXT
((#554,#555,#556)) REPRESENTATION_CONTEXT('Context #1',
  '3D Context with UNIT and UNCERTAINTY') );
#554 = ( LENGTH_UNIT() NAMED_UNIT(*) SI_UNIT(.MILLI.,.METRE.) );
#555 = ( NAMED_UNIT(*) PLANE_ANGLE_UNIT() SI_UNIT($,.RADIAN.) );
#556 = ( NAMED_UNIT(*) SI_UNIT($,.STERADIAN.) SOLID_ANGLE_UNIT() );
#557 = UNCERTAINTY_MEASURE_WITH_UNIT(LENGTH_MEASURE(1.E-07),#554,
  'distance_accuracy_value','confusion accuracy');
#558 = PRODUCT_RELATED_PRODUCT_CATEGORY('part',$,(#7));
ENDSEC;
END-ISO-10303-21;
