solid 
 facet normal -3.006142e-17 -1.000000e+00  5.465713e-18
   outer loop
     vertex  5.000000e+01 -2.500000e+01  5.500000e+02
     vertex -5.000000e+01 -2.500000e+01  6.500000e+02
     vertex -5.000000e+01 -2.500000e+01  0.000000e+00
   endloop
 endfacet
 facet normal  0.000000e+00 -1.000000e+00 -0.000000e+00
   outer loop
     vertex  5.000000e+01 -2.500000e+01  5.500000e+02
     vertex -5.000000e+01 -2.500000e+01  0.000000e+00
     vertex  5.000000e+01 -2.500000e+01  0.000000e+00
   endloop
 endfacet
 facet normal  1.000000e+00  0.000000e+00  0.000000e+00
   outer loop
     vertex  5.000000e+01  2.500000e+01  5.500000e+02
     vertex  5.000000e+01 -2.500000e+01  5.500000e+02
     vertex  5.000000e+01 -2.500000e+01  0.000000e+00
   endloop
 endfacet
 facet normal  1.000000e+00  0.000000e+00  0.000000e+00
   outer loop
     vertex  5.000000e+01  2.500000e+01  5.500000e+02
     vertex  5.000000e+01 -2.500000e+01  0.000000e+00
     vertex  5.000000e+01  2.500000e+01  0.000000e+00
   endloop
 endfacet
 facet normal  0.000000e+00  1.000000e+00  6.459479e-18
   outer loop
     vertex  5.000000e+01  2.500000e+01  5.500000e+02
     vertex  5.000000e+01  2.500000e+01  0.000000e+00
     vertex -5.000000e+01  2.500000e+01  0.000000e+00
   endloop
 endfacet
 facet normal  3.552714e-17  1.000000e+00  0.000000e+00
   outer loop
     vertex -5.000000e+01  2.500000e+01  6.500000e+02
     vertex  5.000000e+01  2.500000e+01  5.500000e+02
     vertex -5.000000e+01  2.500000e+01  0.000000e+00
   endloop
 endfacet
 facet normal -1.000000e+00  0.000000e+00  0.000000e+00
   outer loop
     vertex -5.000000e+01 -2.500000e+01  6.500000e+02
     vertex -5.000000e+01  2.500000e+01  6.500000e+02
     vertex -5.000000e+01  2.500000e+01  0.000000e+00
   endloop
 endfacet
 facet normal -1.000000e+00  0.000000e+00 -0.000000e+00
   outer loop
     vertex -5.000000e+01 -2.500000e+01  6.500000e+02
     vertex -5.000000e+01  2.500000e+01  0.000000e+00
     vertex -5.000000e+01 -2.500000e+01  0.000000e+00
   endloop
 endfacet
 facet normal  1.015061e-17 -1.000000e+00  4.567775e-17
   outer loop
     vertex  3.000000e+02 -2.500000e+01  6.500000e+02
     vertex -5.000000e+01 -2.500000e+01  6.500000e+02
     vertex  5.000000e+01 -2.500000e+01  5.500000e+02
   endloop
 endfacet
 facet normal -2.842171e-17 -1.000000e+00  1.421085e-16
   outer loop
     vertex  3.000000e+02 -2.500000e+01  5.500000e+02
     vertex  3.000000e+02 -2.500000e+01  6.500000e+02
     vertex  5.000000e+01 -2.500000e+01  5.500000e+02
   endloop
 endfacet
 facet normal  0.000000e+00 -0.000000e+00 -1.000000e+00
   outer loop
     vertex  3.000000e+02  2.500000e+01  5.500000e+02
     vertex  3.000000e+02 -2.500000e+01  5.500000e+02
     vertex  5.000000e+01 -2.500000e+01  5.500000e+02
   endloop
 endfacet
 facet normal -0.000000e+00  0.000000e+00 -1.000000e+00
   outer loop
     vertex  3.000000e+02  2.500000e+01  5.500000e+02
     vertex  5.000000e+01 -2.500000e+01  5.500000e+02
     vertex  5.000000e+01  2.500000e+01  5.500000e+02
   endloop
 endfacet
 facet normal  1.421085e-17  1.000000e+00 -1.421085e-16
   outer loop
     vertex  3.000000e+02  2.500000e+01  6.500000e+02
     vertex  3.000000e+02  2.500000e+01  5.500000e+02
     vertex  5.000000e+01  2.500000e+01  5.500000e+02
   endloop
 endfacet
 facet normal -2.030122e-17  1.000000e+00 -5.582836e-17
   outer loop
     vertex  3.000000e+02  2.500000e+01  6.500000e+02
     vertex  5.000000e+01  2.500000e+01  5.500000e+02
     vertex -5.000000e+01  2.500000e+01  6.500000e+02
   endloop
 endfacet
 facet normal  0.000000e+00 -0.000000e+00  1.000000e+00
   outer loop
     vertex  3.000000e+02 -2.500000e+01  6.500000e+02
     vertex  3.000000e+02  2.500000e+01  6.500000e+02
     vertex -5.000000e+01  2.500000e+01  6.500000e+02
   endloop
 endfacet
 facet normal  0.000000e+00  0.000000e+00  1.000000e+00
   outer loop
     vertex  3.000000e+02 -2.500000e+01  6.500000e+02
     vertex -5.000000e+01  2.500000e+01  6.500000e+02
     vertex -5.000000e+01 -2.500000e+01  6.500000e+02
   endloop
 endfacet
 facet normal  0.000000e+00 -0.000000e+00 -1.000000e+00
   outer loop
     vertex  5.000000e+01  2.500000e+01  0.000000e+00
     vertex  5.000000e+01 -2.500000e+01  0.000000e+00
     vertex -5.000000e+01 -2.500000e+01  0.000000e+00
   endloop
 endfacet
 facet normal -0.000000e+00  0.000000e+00 -1.000000e+00
   outer loop
     vertex  5.000000e+01  2.500000e+01  0.000000e+00
     vertex -5.000000e+01 -2.500000e+01  0.000000e+00
     vertex -5.000000e+01  2.500000e+01  0.000000e+00
   endloop
 endfacet
 facet normal  1.000000e+00  0.000000e+00  0.000000e+00
   outer loop
     vertex  3.000000e+02 -2.500000e+01  6.500000e+02
     vertex  3.000000e+02 -2.500000e+01  5.500000e+02
     vertex  3.000000e+02  2.500000e+01  5.500000e+02
   endloop
 endfacet
 facet normal  1.000000e+00 -0.000000e+00  0.000000e+00
   outer loop
     vertex  3.000000e+02 -2.500000e+01  6.500000e+02
     vertex  3.000000e+02  2.500000e+01  5.500000e+02
     vertex  3.000000e+02  2.500000e+01  6.500000e+02
   endloop
 endfacet
endsolid
