ISO-10303-21;
HEADER;
FILE_DESCRIPTION(('Open CASCADE Model'),'2;1');
FILE_NAME('Open CASCADE Shape Model','2026-08-31T12:46:25',('Author'),(
    'Open CASCADE'),'Open CASCADE STEP processor 7.9','Open CASCADE 7.9'
  ,'Unknown');
FILE_SCHEMA(('AUTOMOTIVE_DESIGN { 1 0 10303 214 1 1 1 1 }'));
ENDSEC;
DATA;
#1 = APPLICATION_PROTOCOL_DEFINITION('international standard',
  'automotive_design',2000,#2);
#2 = APPLICATION_CONTEXT(
  'core data for automotive mechanical design processes');
#3 = SHAPE_DEFINITION_REPRESENTATION(#4,#10);
#4 = PRODUCT_DEFINITION_SHAPE('','',#5);
#5 = PRODUCT_DEFINITION('design','',#6,#9);
#6 = PRODUCT_DEFINITION_FORMATION('','',#7);
#7 = PRODUCT('Open CASCADE STEP translator 7.9 2',
  'Open CASCADE STEP translator 7.9 2','',(#8));
#8 = PRODUCT_CONTEXT('',#2,'mechanical');
#9 = PRODUCT_DEFINITION_CONTEXT('part definition',#2,'design');
#10 = ADVANCED_BREP_SHAPE_REPRESENTATION('',(#11,#15),#985);
#11 = AXIS2_PLACEMENT_3D('',#12,#13,#14);
#12 = CARTESIAN_POINT('',(0.,0.,0.));
#13 = DIRECTION('',(0.,0.,1.));
#14 = DIRECTION('',(1.,0.,-0.));
#15 = MANIFOLD_SOLID_BREP('',#16);
#16 = CLOSED_SHELL('',(#17,#571,#807,#928,#971,#978));
#17 = ADVANCED_FACE('',(#18),#31,.T.);
#18 = FACE_BOUND('',#19,.T.);
#19 = EDGE_LOOP('',(#20,#163,#355,#381));
#20 = ORIENTED_EDGE('',*,*,#21,.T.);
#21 = EDGE_CURVE('',#22,#24,#26,.T.);
#22 = VERTEX_POINT('',#23);
#23 = CARTESIAN_POINT('',(50.047588920907,25.,2.180969368267));
#24 = VERTEX_POINT('',#25);
#25 = CARTESIAN_POINT('',(149.95241107909,25.,-2.180969368267));
#26 = SURFACE_CURVE('',#27,(#30,#152),.PCURVE_S1.);
#27 = B_SPLINE_CURVE_WITH_KNOTS('',1,(#28,#29),.UNSPECIFIED.,.F.,.F.,(2,
    2),(0.,1.),.PIECEWISE_BEZIER_KNOTS.);
#28 = CARTESIAN_POINT('',(50.047588920907,25.,2.180969368267));
#29 = CARTESIAN_POINT('',(149.95241107909,25.,-2.180969368267));
#30 = PCURVE('',#31,#146);
#31 = ( BOUNDED_SURFACE() B_SPLINE_SURFACE(1,3,(
    (#32,#33,#34,#35,#36,#37,#38,#39,#40,#41,#42,#43,#44,#45,#46,#47,#48
      ,#49,#50,#51,#52,#53,#54,#55,#56,#57,#58,#59,#60,#61,#62,#63,#64
      ,#65,#66,#67,#68,#69,#70,#71,#72,#73,#74,#75,#76,#77,#78,#79,#80
      ,#81,#82,#83,#84,#85,#86,#87,#88)
    ,(#89,#90,#91,#92,#93,#94,#95,#96,#97,#98,#99,#100,#101,#102,#103
      ,#104,#105,#106,#107,#108,#109,#110,#111,#112,#113,#114,#115,#116
      ,#117,#118,#119,#120,#121,#122,#123,#124,#125,#126,#127,#128,#129
      ,#130,#131,#132,#133,#134,#135,#136,#137,#138,#139,#140,#141,#142
      ,#143,#144,#145
)),.UNSPECIFIED.,.F.,.F.,.F.) B_SPLINE_SURFACE_WITH_KNOTS((2,2),(4,1,1,1
    ,1,1,1,1,1,1,1,1,1,1,1,1,1,1,1,1,1,1,1,1,1,1,1,1,1,1,1,1,1,1,1,1,1,1
    ,1,1,1,1,1,1,1,1,1,1,1,1,1,1,1,1,4),(0.,1.),(0.,1.852681728932E-02,
    3.705363457864E-02,5.558045186797E-02,7.410726915729E-02,
    9.263408644661E-02,0.111160903736,0.129687721025,0.148214538315,
    0.166741355604,0.185268172893,0.203794990183,0.222321807472,
    0.240848624761,0.259375442051,0.27790225934,0.296429076629,
    0.314955893918,0.333482711208,0.352009528497,0.370536345786,
    0.389063163076,0.407589980365,0.426116797654,0.444643614944,
    0.463170432233,0.481697249522,0.500224066812,0.518750884101,
    0.53727770139,0.55580451868,0.574331335969,0.592858153258,
    0.611384970548,0.629911787837,0.648438605126,0.666965422416,
    0.685492239705,0.704019056994,0.722545874284,0.741072691573,
    0.759599508862,0.778126326152,0.796653143441,0.81517996073,
    0.833706778019,0.852233595309,0.870760412598,0.889287229887,
    0.907814047177,0.926340864466,0.944867681755,0.963394499045,
0.981921316334,1.),.UNSPECIFIED.) GEOMETRIC_REPRESENTATION_ITEM() 
RATIONAL_B_SPLINE_SURFACE((
    (1.,0.999999999963,1.000000000017,0.999999999995,1.000000000001,1.
      ,1.,1.,1.,1.,1.,1.,1.,1.,1.,1.,1.,1.,1.,1.,1.,1.,1.,1.,1.,1.,1.,1.
      ,1.,1.,1.,1.,1.,1.,1.,1.,1.,1.,1.,1.,1.,1.,1.,1.,1.,1.,1.,1.,1.,1.
      ,1.,1.,1.,0.999999999998,1.000000000006,0.999999999986,1.)
    ,(1.,0.999999999963,1.000000000017,0.999999999995,1.000000000001,1.
      ,1.,1.,1.,1.,1.,1.,1.,1.,1.,1.,1.,1.,1.,1.,1.,1.,1.,1.,1.,1.,1.,1.
      ,1.,1.,1.,1.,1.,1.,1.,1.,1.,1.,1.,1.,1.,1.,1.,1.,1.,1.,1.,1.,1.,1.
      ,1.,1.,1.,0.999999999998,1.000000000006,0.999999999986,1.
))) REPRESENTATION_ITEM('') SURFACE() );
#32 = CARTESIAN_POINT('',(50.047588920907,25.,2.180969368267));
#33 = CARTESIAN_POINT('',(50.111030748958,25.000000000922,0.725144026838
    ));
#34 = CARTESIAN_POINT('',(50.110788957587,24.999999999572,
    -2.192044913807));
#35 = CARTESIAN_POINT('',(49.729052967912,25.000000000115,-6.55114682437
    ));
#36 = CARTESIAN_POINT('',(48.968848842105,24.999999999969,
    -10.86039020751));
#37 = CARTESIAN_POINT('',(47.835962212646,25.000000000008,-15.0869795558
    ));
#38 = CARTESIAN_POINT('',(46.339015025471,24.999999999998,
    -19.19874785516));
#39 = CARTESIAN_POINT('',(44.489399953994,25.000000000001,
    -23.16440209745));
#40 = CARTESIAN_POINT('',(42.301193685351,25.,-26.95376125096));
#41 = CARTESIAN_POINT('',(39.791049790626,25.,-30.5379860067));
#42 = CARTESIAN_POINT('',(36.978071980495,25.,-33.88979824945));
#43 = CARTESIAN_POINT('',(33.883668714624,25.,-36.98368866435));
#44 = CARTESIAN_POINT('',(30.531390270316,25.,-39.79611087714));
#45 = CARTESIAN_POINT('',(26.946749510693,25.,-42.3056606566));
#46 = CARTESIAN_POINT('',(23.157027716402,25.,-44.49323881362));
#47 = CARTESIAN_POINT('',(19.191066958593,25.,-46.34219655751));
#48 = CARTESIAN_POINT('',(15.079050593346,25.,-47.83846220341));
#49 = CARTESIAN_POINT('',(10.852273548104,25.,-48.97064826629));
#50 = CARTESIAN_POINT('',(6.54290414838,25.,-49.73013812658));
#51 = CARTESIAN_POINT('',(2.183739297372,25.,-50.11115160785));
#52 = CARTESIAN_POINT('',(-2.192045128266,25.,-50.11078896744));
#53 = CARTESIAN_POINT('',(-6.551146766886,25.,-49.72905296527));
#54 = CARTESIAN_POINT('',(-10.86039022291,25.,-48.96884884281));
#55 = CARTESIAN_POINT('',(-15.08697955167,25.,-47.83596221245));
#56 = CARTESIAN_POINT('',(-19.19874785626,25.,-46.33901502552));
#57 = CARTESIAN_POINT('',(-23.16440209716,25.,-44.48939995398));
#58 = CARTESIAN_POINT('',(-26.95376125104,25.,-42.30119368535));
#59 = CARTESIAN_POINT('',(-30.53798600667,25.,-39.79104979062));
#60 = CARTESIAN_POINT('',(-33.88979824946,25.,-36.97807198049));
#61 = CARTESIAN_POINT('',(-36.98368866435,25.,-33.88366871462));
#62 = CARTESIAN_POINT('',(-39.79611087714,25.,-30.53139027031));
#63 = CARTESIAN_POINT('',(-42.3056606566,25.,-26.94674951069));
#64 = CARTESIAN_POINT('',(-44.49323881362,25.,-23.1570277164));
#65 = CARTESIAN_POINT('',(-46.34219655751,25.,-19.19106695859));
#66 = CARTESIAN_POINT('',(-47.83846220341,25.,-15.07905059334));
#67 = CARTESIAN_POINT('',(-48.97064826629,25.,-10.8522735481));
#68 = CARTESIAN_POINT('',(-49.7301381266,25.,-6.54290414838));
#69 = CARTESIAN_POINT('',(-50.11115160779,25.,-2.183739297372));
#70 = CARTESIAN_POINT('',(-50.11078896765,25.,2.192045128266));
#71 = CARTESIAN_POINT('',(-49.72905296448,25.,6.551146766886));
#72 = CARTESIAN_POINT('',(-48.96884884573,25.,10.860390222915));
#73 = CARTESIAN_POINT('',(-47.83596220153,25.,15.086979551683));
#74 = CARTESIAN_POINT('',(-46.33901506627,25.,19.198747856226));
#75 = CARTESIAN_POINT('',(-44.48939980187,25.,23.164402097321));
#76 = CARTESIAN_POINT('',(-42.30119425302,25.,26.953761250442));
#77 = CARTESIAN_POINT('',(-39.79104767206,25.,30.537986008922));
#78 = CARTESIAN_POINT('',(-36.97807988705,25.,33.889798241097));
#79 = CARTESIAN_POINT('',(-33.88363920693,25.,36.983688695582));
#80 = CARTESIAN_POINT('',(-30.53150039452,24.999999999999,
    39.796110760592));
#81 = CARTESIAN_POINT('',(-26.94633852154,25.000000000002,
    42.305661091581));
#82 = CARTESIAN_POINT('',(-23.15856154879,24.999999999991,
    44.493237190283));
#83 = CARTESIAN_POINT('',(-19.18534261815,25.000000000034,
    46.342202615894));
#84 = CARTESIAN_POINT('',(-15.1004141227,24.999999999873,47.83843959322)
  );
#85 = CARTESIAN_POINT('',(-10.77254377109,25.000000000475,
    48.970732648691));
#86 = CARTESIAN_POINT('',(-6.872163302892,24.999999998245,
    49.723702817903));
#87 = CARTESIAN_POINT('',(-3.088471810568,25.000000003686,
    49.978620853509));
#88 = CARTESIAN_POINT('',(2.180969368267,25.,50.047588920907));
#89 = CARTESIAN_POINT('',(149.95241107909,25.,-2.180969368267));
#90 = CARTESIAN_POINT('',(149.88896926165,25.000000000922,
    -6.542908168489));
#91 = CARTESIAN_POINT('',(149.38119306247,24.999999999572,
    -15.26124112147));
#92 = CARTESIAN_POINT('',(147.48264765607,25.000000000115,
    -28.22259713631));
#93 = CARTESIAN_POINT('',(144.46167025651,24.999999999969,
    -40.96916111507));
#94 = CARTESIAN_POINT('',(140.3412523158,25.000000000008,-53.40392531613
    ));
#95 = CARTESIAN_POINT('',(135.15275270519,24.999999999998,
    -65.43225332532));
#96 = CARTESIAN_POINT('',(128.93565903887,25.000000000001,
    -76.96260239748));
#97 = CARTESIAN_POINT('',(121.73728715383,25.,-87.90721958878));
#98 = CARTESIAN_POINT('',(113.61242100655,25.,-98.18280976061));
#99 = CARTESIAN_POINT('',(104.62289573436,25.,-107.7111694653));
#100 = CARTESIAN_POINT('',(94.837127052606,25.,-116.4197821328));
#101 = CARTESIAN_POINT('',(84.329590569752,25.,-124.242369962));
#102 = CARTESIAN_POINT('',(73.180254983063,25.,-131.1193983362));
#103 = CARTESIAN_POINT('',(61.473973468507,25.,-136.998528917));
#104 = CARTESIAN_POINT('',(49.299837896856,25.,-141.8350179708));
#105 = CARTESIAN_POINT('',(36.750500790753,25.,-145.5920568955));
#106 = CARTESIAN_POINT('',(23.921470183074,25.,-148.2410523563));
#107 = CARTESIAN_POINT('',(10.910382743123,25.,-149.7618438983));
#108 = CARTESIAN_POINT('',(-2.183739297372,25.,-150.1428573796));
#109 = CARTESIAN_POINT('',(-15.26124176323,25.,-149.3811930575));
#110 = CARTESIAN_POINT('',(-28.22259696429,25.,-147.4826476574));
#111 = CARTESIAN_POINT('',(-40.96916116118,25.,-144.4616702561));
#112 = CARTESIAN_POINT('',(-53.40392530377,25.,-140.3412523159));
#113 = CARTESIAN_POINT('',(-65.43225332863,25.,-135.1527527051));
#114 = CARTESIAN_POINT('',(-76.96260239659,25.,-128.9356590388));
#115 = CARTESIAN_POINT('',(-87.90721958902,25.,-121.7372871538));
#116 = CARTESIAN_POINT('',(-98.18280976055,25.,-113.6124210065));
#117 = CARTESIAN_POINT('',(-107.7111694653,25.,-104.6228957343));
#118 = CARTESIAN_POINT('',(-116.4197821328,25.,-94.8371270526));
#119 = CARTESIAN_POINT('',(-124.242369962,25.,-84.32959056975));
#120 = CARTESIAN_POINT('',(-131.1193983362,25.,-73.18025498306));
#121 = CARTESIAN_POINT('',(-136.998528917,25.,-61.4739734685));
#122 = CARTESIAN_POINT('',(-141.8350179708,25.,-49.29983789685));
#123 = CARTESIAN_POINT('',(-145.5920568955,25.,-36.75050079075));
#124 = CARTESIAN_POINT('',(-148.2410523563,25.,-23.92147018307));
#125 = CARTESIAN_POINT('',(-149.7618438983,25.,-10.91038274312));
#126 = CARTESIAN_POINT('',(-150.1428573797,25.,2.183739297372));
#127 = CARTESIAN_POINT('',(-149.3811930573,25.,15.261241763237));
#128 = CARTESIAN_POINT('',(-147.4826476581,25.,28.222596964292));
#129 = CARTESIAN_POINT('',(-144.4616702535,25.,40.969161161184));
#130 = CARTESIAN_POINT('',(-140.3412523257,25.,53.403925303767));
#131 = CARTESIAN_POINT('',(-135.1527526682,25.,65.432253328678));
#132 = CARTESIAN_POINT('',(-128.9356591766,25.,76.962602396452));
#133 = CARTESIAN_POINT('',(-121.7372866398,25.,87.907219589562));
#134 = CARTESIAN_POINT('',(-113.6124229249,25.,98.182809758544));
#135 = CARTESIAN_POINT('',(-104.6228885749,25.,107.71116947288));
#136 = CARTESIAN_POINT('',(-94.83715377204,25.,116.41978210489));
#137 = CARTESIAN_POINT('',(-84.32949085145,24.999999999999,
    124.2423700663));
#138 = CARTESIAN_POINT('',(-73.1806271368,25.000000000002,
    131.11939794715));
#139 = CARTESIAN_POINT('',(-61.47258457183,24.999999999991,
    136.99853036922));
#140 = CARTESIAN_POINT('',(-49.30502132979,25.000000000034,
    141.83501255132));
#141 = CARTESIAN_POINT('',(-36.73115595568,24.999999999873,
    145.59207712148));
#142 = CARTESIAN_POINT('',(-23.99366609039,25.000000000475,
    148.24097687216));
#143 = CARTESIAN_POINT('',(-10.7486041704,24.999999998245,
    149.74986090343));
#144 = CARTESIAN_POINT('',(-2.95226778659,25.000000003686,
    150.00901200693));
#145 = CARTESIAN_POINT('',(-2.180969368267,25.,149.95241107909));
#146 = DEFINITIONAL_REPRESENTATION('',(#147),#151);
#147 = LINE('',#148,#149);
#148 = CARTESIAN_POINT('',(0.,0.));
#149 = VECTOR('',#150,1.);
#150 = DIRECTION('',(1.,0.));
#151 = ( GEOMETRIC_REPRESENTATION_CONTEXT(2) 
PARAMETRIC_REPRESENTATION_CONTEXT() REPRESENTATION_CONTEXT('2D SPACE',''
  ) );
#152 = PCURVE('',#153,#158);
#153 = PLANE('',#154);
#154 = AXIS2_PLACEMENT_3D('',#155,#156,#157);
#155 = CARTESIAN_POINT('',(50.047588920907,25.,2.180969368267));
#156 = DIRECTION('',(4.361938736534E-02,0.,0.999048221582));
#157 = DIRECTION('',(0.893575894503,-0.4472135955,-3.901436611431E-02));
#158 = DEFINITIONAL_REPRESENTATION('',(#159),#162);
#159 = B_SPLINE_CURVE_WITH_KNOTS('',1,(#160,#161),.UNSPECIFIED.,.F.,.F.,
  (2,2),(0.,1.),.PIECEWISE_BEZIER_KNOTS.);
#160 = CARTESIAN_POINT('',(0.,0.));
#161 = CARTESIAN_POINT('',(89.442719099992,44.721359549996));
#162 = ( GEOMETRIC_REPRESENTATION_CONTEXT(2) 
PARAMETRIC_REPRESENTATION_CONTEXT() REPRESENTATION_CONTEXT('2D SPACE',''
  ) );
#163 = ORIENTED_EDGE('',*,*,#164,.T.);
#164 = EDGE_CURVE('',#24,#165,#167,.T.);
#165 = VERTEX_POINT('',#166);
#166 = CARTESIAN_POINT('',(-2.180969368267,25.,149.95241107909));
#167 = SURFACE_CURVE('',#168,(#226,#233),.PCURVE_S1.);
#168 = ( BOUNDED_CURVE() B_SPLINE_CURVE(3,(#169,#170,#171,#172,#173,#174
    ,#175,#176,#177,#178,#179,#180,#181,#182,#183,#184,#185,#186,#187,
    #188,#189,#190,#191,#192,#193,#194,#195,#196,#197,#198,#199,#200,
    #201,#202,#203,#204,#205,#206,#207,#208,#209,#210,#211,#212,#213,
    #214,#215,#216,#217,#218,#219,#220,#221,#222,#223,#224,#225),
.UNSPECIFIED.,.F.,.F.) B_SPLINE_CURVE_WITH_KNOTS((4,1,1,1,1,1,1,1,1,1,1,
    1,1,1,1,1,1,1,1,1,1,1,1,1,1,1,1,1,1,1,1,1,1,1,1,1,1,1,1,1,1,1,1,1,1,
    1,1,1,1,1,1,1,1,1,4),(0.,1.852681728932E-02,3.705363457864E-02,
    5.558045186797E-02,7.410726915729E-02,9.263408644661E-02,
    0.111160903736,0.129687721025,0.148214538315,0.166741355604,
    0.185268172893,0.203794990183,0.222321807472,0.240848624761,
    0.259375442051,0.27790225934,0.296429076629,0.314955893918,
    0.333482711208,0.352009528497,0.370536345786,0.389063163076,
    0.407589980365,0.426116797654,0.444643614944,0.463170432233,
    0.481697249522,0.500224066812,0.518750884101,0.53727770139,
    0.55580451868,0.574331335969,0.592858153258,0.611384970548,
    0.629911787837,0.648438605126,0.666965422416,0.685492239705,
    0.704019056994,0.722545874284,0.741072691573,0.759599508862,
    0.778126326152,0.796653143441,0.81517996073,0.833706778019,
    0.852233595309,0.870760412598,0.889287229887,0.907814047177,
    0.926340864466,0.944867681755,0.963394499045,0.981921316334,1.),
.UNSPECIFIED.) CURVE() GEOMETRIC_REPRESENTATION_ITEM() 
RATIONAL_B_SPLINE_CURVE((1.,0.999999999963,1.000000000017,0.999999999995
    ,1.000000000001,1.,1.,1.,1.,1.,1.,1.,1.,1.,1.,1.,1.,1.,1.,1.,1.,1.,
    1.,1.,1.,1.,1.,1.,1.,1.,1.,1.,1.,1.,1.,1.,1.,1.,1.,1.,1.,1.,1.,1.,1.
    ,1.,1.,1.,1.,1.,1.,1.,1.,0.999999999998,1.000000000006,
0.999999999986,1.)) REPRESENTATION_ITEM('') );
#169 = CARTESIAN_POINT('',(149.95241107909,25.,-2.180969368267));
#170 = CARTESIAN_POINT('',(149.88896926165,25.000000000922,
    -6.542908168489));
#171 = CARTESIAN_POINT('',(149.38119306247,24.999999999572,
    -15.26124112147));
#172 = CARTESIAN_POINT('',(147.48264765607,25.000000000115,
    -28.22259713631));
#173 = CARTESIAN_POINT('',(144.46167025651,24.999999999969,
    -40.96916111507));
#174 = CARTESIAN_POINT('',(140.3412523158,25.000000000008,
    -53.40392531613));
#175 = CARTESIAN_POINT('',(135.15275270519,24.999999999998,
    -65.43225332532));
#176 = CARTESIAN_POINT('',(128.93565903887,25.000000000001,
    -76.96260239748));
#177 = CARTESIAN_POINT('',(121.73728715383,25.,-87.90721958878));
#178 = CARTESIAN_POINT('',(113.61242100655,25.,-98.18280976061));
#179 = CARTESIAN_POINT('',(104.62289573436,25.,-107.7111694653));
#180 = CARTESIAN_POINT('',(94.837127052606,25.,-116.4197821328));
#181 = CARTESIAN_POINT('',(84.329590569752,25.,-124.242369962));
#182 = CARTESIAN_POINT('',(73.180254983063,25.,-131.1193983362));
#183 = CARTESIAN_POINT('',(61.473973468507,25.,-136.998528917));
#184 = CARTESIAN_POINT('',(49.299837896856,25.,-141.8350179708));
#185 = CARTESIAN_POINT('',(36.750500790753,25.,-145.5920568955));
#186 = CARTESIAN_POINT('',(23.921470183074,25.,-148.2410523563));
#187 = CARTESIAN_POINT('',(10.910382743123,25.,-149.7618438983));
#188 = CARTESIAN_POINT('',(-2.183739297372,25.,-150.1428573796));
#189 = CARTESIAN_POINT('',(-15.26124176323,25.,-149.3811930575));
#190 = CARTESIAN_POINT('',(-28.22259696429,25.,-147.4826476574));
#191 = CARTESIAN_POINT('',(-40.96916116118,25.,-144.4616702561));
#192 = CARTESIAN_POINT('',(-53.40392530377,25.,-140.3412523159));
#193 = CARTESIAN_POINT('',(-65.43225332863,25.,-135.1527527051));
#194 = CARTESIAN_POINT('',(-76.96260239659,25.,-128.9356590388));
#195 = CARTESIAN_POINT('',(-87.90721958902,25.,-121.7372871538));
#196 = CARTESIAN_POINT('',(-98.18280976055,25.,-113.6124210065));
#197 = CARTESIAN_POINT('',(-107.7111694653,25.,-104.6228957343));
#198 = CARTESIAN_POINT('',(-116.4197821328,25.,-94.8371270526));
#199 = CARTESIAN_POINT('',(-124.242369962,25.,-84.32959056975));
#200 = CARTESIAN_POINT('',(-131.1193983362,25.,-73.18025498306));
#201 = CARTESIAN_POINT('',(-136.998528917,25.,-61.4739734685));
#202 = CARTESIAN_POINT('',(-141.8350179708,25.,-49.29983789685));
#203 = CARTESIAN_POINT('',(-145.5920568955,25.,-36.75050079075));
#204 = CARTESIAN_POINT('',(-148.2410523563,25.,-23.92147018307));
#205 = CARTESIAN_POINT('',(-149.7618438983,25.,-10.91038274312));
#206 = CARTESIAN_POINT('',(-150.1428573797,25.,2.183739297372));
#207 = CARTESIAN_POINT('',(-149.3811930573,25.,15.261241763237));
#208 = CARTESIAN_POINT('',(-147.4826476581,25.,28.222596964292));
#209 = CARTESIAN_POINT('',(-144.4616702535,25.,40.969161161184));
#210 = CARTESIAN_POINT('',(-140.3412523257,25.,53.403925303767));
#211 = CARTESIAN_POINT('',(-135.1527526682,25.,65.432253328678));
#212 = CARTESIAN_POINT('',(-128.9356591766,25.,76.962602396452));
#213 = CARTESIAN_POINT('',(-121.7372866398,25.,87.907219589562));
#214 = CARTESIAN_POINT('',(-113.6124229249,25.,98.182809758544));
#215 = CARTESIAN_POINT('',(-104.6228885749,25.,107.71116947288));
#216 = CARTESIAN_POINT('',(-94.83715377204,25.,116.41978210489));
#217 = CARTESIAN_POINT('',(-84.32949085145,24.999999999999,
    124.2423700663));
#218 = CARTESIAN_POINT('',(-73.1806271368,25.000000000002,
    131.11939794715));
#219 = CARTESIAN_POINT('',(-61.47258457183,24.999999999991,
    136.99853036922));
#220 = CARTESIAN_POINT('',(-49.30502132979,25.000000000034,
    141.83501255132));
#221 = CARTESIAN_POINT('',(-36.73115595568,24.999999999873,
    145.59207712148));
#222 = CARTESIAN_POINT('',(-23.99366609039,25.000000000475,
    148.24097687216));
#223 = CARTESIAN_POINT('',(-10.7486041704,24.999999998245,
    149.74986090343));
#224 = CARTESIAN_POINT('',(-2.95226778659,25.000000003686,
    150.00901200693));
#225 = CARTESIAN_POINT('',(-2.180969368267,25.,149.95241107909));
#226 = PCURVE('',#31,#227);
#227 = DEFINITIONAL_REPRESENTATION('',(#228),#232);
#228 = LINE('',#229,#230);
#229 = CARTESIAN_POINT('',(1.,0.));
#230 = VECTOR('',#231,1.);
#231 = DIRECTION('',(0.,1.));
#232 = ( GEOMETRIC_REPRESENTATION_CONTEXT(2) 
PARAMETRIC_REPRESENTATION_CONTEXT() REPRESENTATION_CONTEXT('2D SPACE',''
  ) );
#233 = PCURVE('',#234,#349);
#234 = ( BOUNDED_SURFACE() B_SPLINE_SURFACE(1,3,(
    (#235,#236,#237,#238,#239,#240,#241,#242,#243,#244,#245,#246,#247
      ,#248,#249,#250,#251,#252,#253,#254,#255,#256,#257,#258,#259,#260
      ,#261,#262,#263,#264,#265,#266,#267,#268,#269,#270,#271,#272,#273
      ,#274,#275,#276,#277,#278,#279,#280,#281,#282,#283,#284,#285,#286
      ,#287,#288,#289,#290,#291)
    ,(#292,#293,#294,#295,#296,#297,#298,#299,#300,#301,#302,#303,#304
      ,#305,#306,#307,#308,#309,#310,#311,#312,#313,#314,#315,#316,#317
      ,#318,#319,#320,#321,#322,#323,#324,#325,#326,#327,#328,#329,#330
      ,#331,#332,#333,#334,#335,#336,#337,#338,#339,#340,#341,#342,#343
      ,#344,#345,#346,#347,#348
)),.UNSPECIFIED.,.F.,.F.,.F.) B_SPLINE_SURFACE_WITH_KNOTS((2,2),(4,1,1,1
    ,1,1,1,1,1,1,1,1,1,1,1,1,1,1,1,1,1,1,1,1,1,1,1,1,1,1,1,1,1,1,1,1,1,1
    ,1,1,1,1,1,1,1,1,1,1,1,1,1,1,1,1,4),(1.,2.),(0.,1.852681728932E-02,
    3.705363457864E-02,5.558045186797E-02,7.410726915729E-02,
    9.263408644661E-02,0.111160903736,0.129687721025,0.148214538315,
    0.166741355604,0.185268172893,0.203794990183,0.222321807472,
    0.240848624761,0.259375442051,0.27790225934,0.296429076629,
    0.314955893918,0.333482711208,0.352009528497,0.370536345786,
    0.389063163076,0.407589980365,0.426116797654,0.444643614944,
    0.463170432233,0.481697249522,0.500224066812,0.518750884101,
    0.53727770139,0.55580451868,0.574331335969,0.592858153258,
    0.611384970548,0.629911787837,0.648438605126,0.666965422416,
    0.685492239705,0.704019056994,0.722545874284,0.741072691573,
    0.759599508862,0.778126326152,0.796653143441,0.81517996073,
    0.833706778019,0.852233595309,0.870760412598,0.889287229887,
    0.907814047177,0.926340864466,0.944867681755,0.963394499045,
0.981921316334,1.),.UNSPECIFIED.) GEOMETRIC_REPRESENTATION_ITEM() 
RATIONAL_B_SPLINE_SURFACE((
    (1.,0.999999999963,1.000000000017,0.999999999995,1.000000000001,1.
      ,1.,1.,1.,1.,1.,1.,1.,1.,1.,1.,1.,1.,1.,1.,1.,1.,1.,1.,1.,1.,1.,1.
      ,1.,1.,1.,1.,1.,1.,1.,1.,1.,1.,1.,1.,1.,1.,1.,1.,1.,1.,1.,1.,1.,1.
      ,1.,1.,1.,0.999999999998,1.000000000006,0.999999999986,1.)
    ,(1.,0.999999999963,1.000000000017,0.999999999995,1.000000000001,1.
      ,1.,1.,1.,1.,1.,1.,1.,1.,1.,1.,1.,1.,1.,1.,1.,1.,1.,1.,1.,1.,1.,1.
      ,1.,1.,1.,1.,1.,1.,1.,1.,1.,1.,1.,1.,1.,1.,1.,1.,1.,1.,1.,1.,1.,1.
      ,1.,1.,1.,0.999999999998,1.000000000006,0.999999999986,1.
))) REPRESENTATION_ITEM('') SURFACE() );
#235 = CARTESIAN_POINT('',(149.95241107909,25.,-2.180969368267));
#236 = CARTESIAN_POINT('',(149.88896926165,25.000000000922,
    -6.542908168489));
#237 = CARTESIAN_POINT('',(149.38119306247,24.999999999572,
    -15.26124112147));
#238 = CARTESIAN_POINT('',(147.48264765607,25.000000000115,
    -28.22259713631));
#239 = CARTESIAN_POINT('',(144.46167025651,24.999999999969,
    -40.96916111507));
#240 = CARTESIAN_POINT('',(140.3412523158,25.000000000008,
    -53.40392531613));
#241 = CARTESIAN_POINT('',(135.15275270519,24.999999999998,
    -65.43225332532));
#242 = CARTESIAN_POINT('',(128.93565903887,25.000000000001,
    -76.96260239748));
#243 = CARTESIAN_POINT('',(121.73728715383,25.,-87.90721958878));
#244 = CARTESIAN_POINT('',(113.61242100655,25.,-98.18280976061));
#245 = CARTESIAN_POINT('',(104.62289573436,25.,-107.7111694653));
#246 = CARTESIAN_POINT('',(94.837127052606,25.,-116.4197821328));
#247 = CARTESIAN_POINT('',(84.329590569752,25.,-124.242369962));
#248 = CARTESIAN_POINT('',(73.180254983063,25.,-131.1193983362));
#249 = CARTESIAN_POINT('',(61.473973468507,25.,-136.998528917));
#250 = CARTESIAN_POINT('',(49.299837896856,25.,-141.8350179708));
#251 = CARTESIAN_POINT('',(36.750500790753,25.,-145.5920568955));
#252 = CARTESIAN_POINT('',(23.921470183074,25.,-148.2410523563));
#253 = CARTESIAN_POINT('',(10.910382743123,25.,-149.7618438983));
#254 = CARTESIAN_POINT('',(-2.183739297372,25.,-150.1428573796));
#255 = CARTESIAN_POINT('',(-15.26124176323,25.,-149.3811930575));
#256 = CARTESIAN_POINT('',(-28.22259696429,25.,-147.4826476574));
#257 = CARTESIAN_POINT('',(-40.96916116118,25.,-144.4616702561));
#258 = CARTESIAN_POINT('',(-53.40392530377,25.,-140.3412523159));
#259 = CARTESIAN_POINT('',(-65.43225332863,25.,-135.1527527051));
#260 = CARTESIAN_POINT('',(-76.96260239659,25.,-128.9356590388));
#261 = CARTESIAN_POINT('',(-87.90721958902,25.,-121.7372871538));
#262 = CARTESIAN_POINT('',(-98.18280976055,25.,-113.6124210065));
#263 = CARTESIAN_POINT('',(-107.7111694653,25.,-104.6228957343));
#264 = CARTESIAN_POINT('',(-116.4197821328,25.,-94.8371270526));
#265 = CARTESIAN_POINT('',(-124.242369962,25.,-84.32959056975));
#266 = CARTESIAN_POINT('',(-131.1193983362,25.,-73.18025498306));
#267 = CARTESIAN_POINT('',(-136.998528917,25.,-61.4739734685));
#268 = CARTESIAN_POINT('',(-141.8350179708,25.,-49.29983789685));
#269 = CARTESIAN_POINT('',(-145.5920568955,25.,-36.75050079075));
#270 = CARTESIAN_POINT('',(-148.2410523563,25.,-23.92147018307));
#271 = CARTESIAN_POINT('',(-149.7618438983,25.,-10.91038274312));
#272 = CARTESIAN_POINT('',(-150.1428573797,25.,2.183739297372));
#273 = CARTESIAN_POINT('',(-149.3811930573,25.,15.261241763237));
#274 = CARTESIAN_POINT('',(-147.4826476581,25.,28.222596964292));
#275 = CARTESIAN_POINT('',(-144.4616702535,25.,40.969161161184));
#276 = CARTESIAN_POINT('',(-140.3412523257,25.,53.403925303767));
#277 = CARTESIAN_POINT('',(-135.1527526682,25.,65.432253328678));
#278 = CARTESIAN_POINT('',(-128.9356591766,25.,76.962602396452));
#279 = CARTESIAN_POINT('',(-121.7372866398,25.,87.907219589562));
#280 = CARTESIAN_POINT('',(-113.6124229249,25.,98.182809758544));
#281 = CARTESIAN_POINT('',(-104.6228885749,25.,107.71116947288));
#282 = CARTESIAN_POINT('',(-94.83715377204,25.,116.41978210489));
#283 = CARTESIAN_POINT('',(-84.32949085145,24.999999999999,
    124.2423700663));
#284 = CARTESIAN_POINT('',(-73.1806271368,25.000000000002,
    131.11939794715));
#285 = CARTESIAN_POINT('',(-61.47258457183,24.999999999991,
    136.99853036922));
#286 = CARTESIAN_POINT('',(-49.30502132979,25.000000000034,
    141.83501255132));
#287 = CARTESIAN_POINT('',(-36.73115595568,24.999999999873,
    145.59207712148));
#288 = CARTESIAN_POINT('',(-23.99366609039,25.000000000475,
    148.24097687216));
#289 = CARTESIAN_POINT('',(-10.7486041704,24.999999998245,
    149.74986090343));
#290 = CARTESIAN_POINT('',(-2.95226778659,25.000000003686,
    150.00901200693));
#291 = CARTESIAN_POINT('',(-2.180969368267,25.,149.95241107909));
#292 = CARTESIAN_POINT('',(149.95241107909,-25.,-2.180969368267));
#293 = CARTESIAN_POINT('',(149.88896926165,-25.00000000092,
    -6.542908168489));
#294 = CARTESIAN_POINT('',(149.38119306247,-24.99999999957,
    -15.26124112147));
#295 = CARTESIAN_POINT('',(147.48264765607,-25.00000000011,
    -28.22259713631));
#296 = CARTESIAN_POINT('',(144.46167025651,-24.99999999996,
    -40.96916111507));
#297 = CARTESIAN_POINT('',(140.3412523158,-25.,-53.40392531613));
#298 = CARTESIAN_POINT('',(135.15275270519,-24.99999999999,
    -65.43225332532));
#299 = CARTESIAN_POINT('',(128.93565903887,-25.,-76.96260239748));
#300 = CARTESIAN_POINT('',(121.73728715383,-25.,-87.90721958878));
#301 = CARTESIAN_POINT('',(113.61242100655,-25.,-98.18280976061));
#302 = CARTESIAN_POINT('',(104.62289573436,-25.,-107.7111694653));
#303 = CARTESIAN_POINT('',(94.837127052606,-25.,-116.4197821328));
#304 = CARTESIAN_POINT('',(84.329590569752,-25.,-124.242369962));
#305 = CARTESIAN_POINT('',(73.180254983063,-25.,-131.1193983362));
#306 = CARTESIAN_POINT('',(61.473973468507,-25.,-136.998528917));
#307 = CARTESIAN_POINT('',(49.299837896856,-25.,-141.8350179708));
#308 = CARTESIAN_POINT('',(36.750500790753,-25.,-145.5920568955));
#309 = CARTESIAN_POINT('',(23.921470183074,-25.,-148.2410523563));
#310 = CARTESIAN_POINT('',(10.910382743123,-25.,-149.7618438983));
#311 = CARTESIAN_POINT('',(-2.183739297372,-25.,-150.1428573796));
#312 = CARTESIAN_POINT('',(-15.26124176323,-25.,-149.3811930575));
#313 = CARTESIAN_POINT('',(-28.22259696429,-25.,-147.4826476574));
#314 = CARTESIAN_POINT('',(-40.96916116118,-25.,-144.4616702561));
#315 = CARTESIAN_POINT('',(-53.40392530377,-25.,-140.3412523159));
#316 = CARTESIAN_POINT('',(-65.43225332863,-25.,-135.1527527051));
#317 = CARTESIAN_POINT('',(-76.96260239659,-25.,-128.9356590388));
#318 = CARTESIAN_POINT('',(-87.90721958902,-25.,-121.7372871538));
#319 = CARTESIAN_POINT('',(-98.18280976055,-25.,-113.6124210065));
#320 = CARTESIAN_POINT('',(-107.7111694653,-25.,-104.6228957343));
#321 = CARTESIAN_POINT('',(-116.4197821328,-25.,-94.8371270526));
#322 = CARTESIAN_POINT('',(-124.242369962,-25.,-84.32959056975));
#323 = CARTESIAN_POINT('',(-131.1193983362,-25.,-73.18025498306));
#324 = CARTESIAN_POINT('',(-136.998528917,-25.,-61.4739734685));
#325 = CARTESIAN_POINT('',(-141.8350179708,-25.,-49.29983789685));
#326 = CARTESIAN_POINT('',(-145.5920568955,-25.,-36.75050079075));
#327 = CARTESIAN_POINT('',(-148.2410523563,-25.,-23.92147018307));
#328 = CARTESIAN_POINT('',(-149.7618438983,-25.,-10.91038274312));
#329 = CARTESIAN_POINT('',(-150.1428573797,-25.,2.183739297372));
#330 = CARTESIAN_POINT('',(-149.3811930573,-25.,15.261241763237));
#331 = CARTESIAN_POINT('',(-147.4826476581,-25.,28.222596964292));
#332 = CARTESIAN_POINT('',(-144.4616702535,-25.,40.969161161184));
#333 = CARTESIAN_POINT('',(-140.3412523257,-25.,53.403925303767));
#334 = CARTESIAN_POINT('',(-135.1527526682,-25.,65.432253328678));
#335 = CARTESIAN_POINT('',(-128.9356591766,-25.,76.962602396452));
#336 = CARTESIAN_POINT('',(-121.7372866398,-25.,87.907219589562));
#337 = CARTESIAN_POINT('',(-113.6124229249,-25.,98.182809758544));
#338 = CARTESIAN_POINT('',(-104.6228885749,-25.,107.71116947288));
#339 = CARTESIAN_POINT('',(-94.83715377204,-25.,116.41978210489));
#340 = CARTESIAN_POINT('',(-84.32949085145,-24.99999999999,
    124.2423700663));
#341 = CARTESIAN_POINT('',(-73.1806271368,-25.,131.11939794715));
#342 = CARTESIAN_POINT('',(-61.47258457183,-24.99999999999,
    136.99853036922));
#343 = CARTESIAN_POINT('',(-49.30502132979,-25.00000000003,
    141.83501255132));
#344 = CARTESIAN_POINT('',(-36.73115595568,-24.99999999987,
    145.59207712148));
#345 = CARTESIAN_POINT('',(-23.99366609039,-25.00000000047,
    148.24097687216));
#346 = CARTESIAN_POINT('',(-10.7486041704,-24.99999999824,
    149.74986090343));
#347 = CARTESIAN_POINT('',(-2.95226778659,-25.00000000368,
    150.00901200693));
#348 = CARTESIAN_POINT('',(-2.180969368267,-25.,149.95241107909));
#349 = DEFINITIONAL_REPRESENTATION('',(#350),#354);
#350 = LINE('',#351,#352);
#351 = CARTESIAN_POINT('',(1.,0.));
#352 = VECTOR('',#353,1.);
#353 = DIRECTION('',(0.,1.));
#354 = ( GEOMETRIC_REPRESENTATION_CONTEXT(2) 
PARAMETRIC_REPRESENTATION_CONTEXT() REPRESENTATION_CONTEXT('2D SPACE',''
  ) );
#355 = ORIENTED_EDGE('',*,*,#356,.F.);
#356 = EDGE_CURVE('',#357,#165,#359,.T.);
#357 = VERTEX_POINT('',#358);
#358 = CARTESIAN_POINT('',(2.180969368267,25.,50.047588920907));
#359 = SURFACE_CURVE('',#360,(#363,#370),.PCURVE_S1.);
#360 = B_SPLINE_CURVE_WITH_KNOTS('',1,(#361,#362),.UNSPECIFIED.,.F.,.F.,
  (2,2),(0.,1.),.PIECEWISE_BEZIER_KNOTS.);
#361 = CARTESIAN_POINT('',(2.180969368267,25.,50.047588920907));
#362 = CARTESIAN_POINT('',(-2.180969368267,25.,149.95241107909));
#363 = PCURVE('',#31,#364);
#364 = DEFINITIONAL_REPRESENTATION('',(#365),#369);
#365 = LINE('',#366,#367);
#366 = CARTESIAN_POINT('',(0.,1.));
#367 = VECTOR('',#368,1.);
#368 = DIRECTION('',(1.,0.));
#369 = ( GEOMETRIC_REPRESENTATION_CONTEXT(2) 
PARAMETRIC_REPRESENTATION_CONTEXT() REPRESENTATION_CONTEXT('2D SPACE',''
  ) );
#370 = PCURVE('',#371,#376);
#371 = PLANE('',#372);
#372 = AXIS2_PLACEMENT_3D('',#373,#374,#375);
#373 = CARTESIAN_POINT('',(2.180969368267,25.,50.047588920907));
#374 = DIRECTION('',(-0.999048221582,0.,-4.361938736534E-02));
#375 = DIRECTION('',(-3.901436611431E-02,-0.4472135955,0.893575894503));
#376 = DEFINITIONAL_REPRESENTATION('',(#377),#380);
#377 = B_SPLINE_CURVE_WITH_KNOTS('',1,(#378,#379),.UNSPECIFIED.,.F.,.F.,
  (2,2),(0.,1.),.PIECEWISE_BEZIER_KNOTS.);
#378 = CARTESIAN_POINT('',(0.,0.));
#379 = CARTESIAN_POINT('',(89.442719099992,44.721359549996));
#380 = ( GEOMETRIC_REPRESENTATION_CONTEXT(2) 
PARAMETRIC_REPRESENTATION_CONTEXT() REPRESENTATION_CONTEXT('2D SPACE',''
  ) );
#381 = ORIENTED_EDGE('',*,*,#382,.F.);
#382 = EDGE_CURVE('',#22,#357,#383,.T.);
#383 = SURFACE_CURVE('',#384,(#442,#449),.PCURVE_S1.);
#384 = ( BOUNDED_CURVE() B_SPLINE_CURVE(3,(#385,#386,#387,#388,#389,#390
    ,#391,#392,#393,#394,#395,#396,#397,#398,#399,#400,#401,#402,#403,
    #404,#405,#406,#407,#408,#409,#410,#411,#412,#413,#414,#415,#416,
    #417,#418,#419,#420,#421,#422,#423,#424,#425,#426,#427,#428,#429,
    #430,#431,#432,#433,#434,#435,#436,#437,#438,#439,#440,#441),
.UNSPECIFIED.,.F.,.F.) B_SPLINE_CURVE_WITH_KNOTS((4,1,1,1,1,1,1,1,1,1,1,
    1,1,1,1,1,1,1,1,1,1,1,1,1,1,1,1,1,1,1,1,1,1,1,1,1,1,1,1,1,1,1,1,1,1,
    1,1,1,1,1,1,1,1,1,4),(0.,1.852681728932E-02,3.705363457864E-02,
    5.558045186797E-02,7.410726915729E-02,9.263408644661E-02,
    0.111160903736,0.129687721025,0.148214538315,0.166741355604,
    0.185268172893,0.203794990183,0.222321807472,0.240848624761,
    0.259375442051,0.27790225934,0.296429076629,0.314955893918,
    0.333482711208,0.352009528497,0.370536345786,0.389063163076,
    0.407589980365,0.426116797654,0.444643614944,0.463170432233,
    0.481697249522,0.500224066812,0.518750884101,0.53727770139,
    0.55580451868,0.574331335969,0.592858153258,0.611384970548,
    0.629911787837,0.648438605126,0.666965422416,0.685492239705,
    0.704019056994,0.722545874284,0.741072691573,0.759599508862,
    0.778126326152,0.796653143441,0.81517996073,0.833706778019,
    0.852233595309,0.870760412598,0.889287229887,0.907814047177,
    0.926340864466,0.944867681755,0.963394499045,0.981921316334,1.),
.UNSPECIFIED.) CURVE() GEOMETRIC_REPRESENTATION_ITEM() 
RATIONAL_B_SPLINE_CURVE((1.,0.999999999963,1.000000000017,0.999999999995
    ,1.000000000001,1.,1.,1.,1.,1.,1.,1.,1.,1.,1.,1.,1.,1.,1.,1.,1.,1.,
    1.,1.,1.,1.,1.,1.,1.,1.,1.,1.,1.,1.,1.,1.,1.,1.,1.,1.,1.,1.,1.,1.,1.
    ,1.,1.,1.,1.,1.,1.,1.,1.,0.999999999998,1.000000000006,
0.999999999986,1.)) REPRESENTATION_ITEM('') );
#385 = CARTESIAN_POINT('',(50.047588920907,25.,2.180969368267));
#386 = CARTESIAN_POINT('',(50.111030748958,25.000000000922,
    0.725144026838));
#387 = CARTESIAN_POINT('',(50.110788957587,24.999999999572,
    -2.192044913807));
#388 = CARTESIAN_POINT('',(49.729052967912,25.000000000115,
    -6.55114682437));
#389 = CARTESIAN_POINT('',(48.968848842105,24.999999999969,
    -10.86039020751));
#390 = CARTESIAN_POINT('',(47.835962212646,25.000000000008,
    -15.0869795558));
#391 = CARTESIAN_POINT('',(46.339015025471,24.999999999998,
    -19.19874785516));
#392 = CARTESIAN_POINT('',(44.489399953994,25.000000000001,
    -23.16440209745));
#393 = CARTESIAN_POINT('',(42.301193685351,25.,-26.95376125096));
#394 = CARTESIAN_POINT('',(39.791049790626,25.,-30.5379860067));
#395 = CARTESIAN_POINT('',(36.978071980495,25.,-33.88979824945));
#396 = CARTESIAN_POINT('',(33.883668714624,25.,-36.98368866435));
#397 = CARTESIAN_POINT('',(30.531390270316,25.,-39.79611087714));
#398 = CARTESIAN_POINT('',(26.946749510693,25.,-42.3056606566));
#399 = CARTESIAN_POINT('',(23.157027716402,25.,-44.49323881362));
#400 = CARTESIAN_POINT('',(19.191066958593,25.,-46.34219655751));
#401 = CARTESIAN_POINT('',(15.079050593346,25.,-47.83846220341));
#402 = CARTESIAN_POINT('',(10.852273548104,25.,-48.97064826629));
#403 = CARTESIAN_POINT('',(6.54290414838,25.,-49.73013812658));
#404 = CARTESIAN_POINT('',(2.183739297372,25.,-50.11115160785));
#405 = CARTESIAN_POINT('',(-2.192045128266,25.,-50.11078896744));
#406 = CARTESIAN_POINT('',(-6.551146766886,25.,-49.72905296527));
#407 = CARTESIAN_POINT('',(-10.86039022291,25.,-48.96884884281));
#408 = CARTESIAN_POINT('',(-15.08697955167,25.,-47.83596221245));
#409 = CARTESIAN_POINT('',(-19.19874785626,25.,-46.33901502552));
#410 = CARTESIAN_POINT('',(-23.16440209716,25.,-44.48939995398));
#411 = CARTESIAN_POINT('',(-26.95376125104,25.,-42.30119368535));
#412 = CARTESIAN_POINT('',(-30.53798600667,25.,-39.79104979062));
#413 = CARTESIAN_POINT('',(-33.88979824946,25.,-36.97807198049));
#414 = CARTESIAN_POINT('',(-36.98368866435,25.,-33.88366871462));
#415 = CARTESIAN_POINT('',(-39.79611087714,25.,-30.53139027031));
#416 = CARTESIAN_POINT('',(-42.3056606566,25.,-26.94674951069));
#417 = CARTESIAN_POINT('',(-44.49323881362,25.,-23.1570277164));
#418 = CARTESIAN_POINT('',(-46.34219655751,25.,-19.19106695859));
#419 = CARTESIAN_POINT('',(-47.83846220341,25.,-15.07905059334));
#420 = CARTESIAN_POINT('',(-48.97064826629,25.,-10.8522735481));
#421 = CARTESIAN_POINT('',(-49.7301381266,25.,-6.54290414838));
#422 = CARTESIAN_POINT('',(-50.11115160779,25.,-2.183739297372));
#423 = CARTESIAN_POINT('',(-50.11078896765,25.,2.192045128266));
#424 = CARTESIAN_POINT('',(-49.72905296448,25.,6.551146766886));
#425 = CARTESIAN_POINT('',(-48.96884884573,25.,10.860390222915));
#426 = CARTESIAN_POINT('',(-47.83596220153,25.,15.086979551683));
#427 = CARTESIAN_POINT('',(-46.33901506627,25.,19.198747856226));
#428 = CARTESIAN_POINT('',(-44.48939980187,25.,23.164402097321));
#429 = CARTESIAN_POINT('',(-42.30119425302,25.,26.953761250442));
#430 = CARTESIAN_POINT('',(-39.79104767206,25.,30.537986008922));
#431 = CARTESIAN_POINT('',(-36.97807988705,25.,33.889798241097));
#432 = CARTESIAN_POINT('',(-33.88363920693,25.,36.983688695582));
#433 = CARTESIAN_POINT('',(-30.53150039452,24.999999999999,
    39.796110760592));
#434 = CARTESIAN_POINT('',(-26.94633852154,25.000000000002,
    42.305661091581));
#435 = CARTESIAN_POINT('',(-23.15856154879,24.999999999991,
    44.493237190283));
#436 = CARTESIAN_POINT('',(-19.18534261815,25.000000000034,
    46.342202615894));
#437 = CARTESIAN_POINT('',(-15.1004141227,24.999999999873,47.83843959322
    ));
#438 = CARTESIAN_POINT('',(-10.77254377109,25.000000000475,
    48.970732648691));
#439 = CARTESIAN_POINT('',(-6.872163302892,24.999999998245,
    49.723702817903));
#440 = CARTESIAN_POINT('',(-3.088471810568,25.000000003686,
    49.978620853509));
#441 = CARTESIAN_POINT('',(2.180969368267,25.,50.047588920907));
#442 = PCURVE('',#31,#443);
#443 = DEFINITIONAL_REPRESENTATION('',(#444),#448);
#444 = LINE('',#445,#446);
#445 = CARTESIAN_POINT('',(0.,0.));
#446 = VECTOR('',#447,1.);
#447 = DIRECTION('',(0.,1.));
#448 = ( GEOMETRIC_REPRESENTATION_CONTEXT(2) 
PARAMETRIC_REPRESENTATION_CONTEXT() REPRESENTATION_CONTEXT('2D SPACE',''
  ) );
#449 = PCURVE('',#450,#565);
#450 = ( BOUNDED_SURFACE() B_SPLINE_SURFACE(1,3,(
    (#451,#452,#453,#454,#455,#456,#457,#458,#459,#460,#461,#462,#463
      ,#464,#465,#466,#467,#468,#469,#470,#471,#472,#473,#474,#475,#476
      ,#477,#478,#479,#480,#481,#482,#483,#484,#485,#486,#487,#488,#489
      ,#490,#491,#492,#493,#494,#495,#496,#497,#498,#499,#500,#501,#502
      ,#503,#504,#505,#506,#507)
    ,(#508,#509,#510,#511,#512,#513,#514,#515,#516,#517,#518,#519,#520
      ,#521,#522,#523,#524,#525,#526,#527,#528,#529,#530,#531,#532,#533
      ,#534,#535,#536,#537,#538,#539,#540,#541,#542,#543,#544,#545,#546
      ,#547,#548,#549,#550,#551,#552,#553,#554,#555,#556,#557,#558,#559
      ,#560,#561,#562,#563,#564
)),.UNSPECIFIED.,.F.,.F.,.F.) B_SPLINE_SURFACE_WITH_KNOTS((2,2),(4,1,1,1
    ,1,1,1,1,1,1,1,1,1,1,1,1,1,1,1,1,1,1,1,1,1,1,1,1,1,1,1,1,1,1,1,1,1,1
    ,1,1,1,1,1,1,1,1,1,1,1,1,1,1,1,1,4),(3.,4.),(0.,1.852681728932E-02,
    3.705363457864E-02,5.558045186797E-02,7.410726915729E-02,
    9.263408644661E-02,0.111160903736,0.129687721025,0.148214538315,
    0.166741355604,0.185268172893,0.203794990183,0.222321807472,
    0.240848624761,0.259375442051,0.27790225934,0.296429076629,
    0.314955893918,0.333482711208,0.352009528497,0.370536345786,
    0.389063163076,0.407589980365,0.426116797654,0.444643614944,
    0.463170432233,0.481697249522,0.500224066812,0.518750884101,
    0.53727770139,0.55580451868,0.574331335969,0.592858153258,
    0.611384970548,0.629911787837,0.648438605126,0.666965422416,
    0.685492239705,0.704019056994,0.722545874284,0.741072691573,
    0.759599508862,0.778126326152,0.796653143441,0.81517996073,
    0.833706778019,0.852233595309,0.870760412598,0.889287229887,
    0.907814047177,0.926340864466,0.944867681755,0.963394499045,
0.981921316334,1.),.UNSPECIFIED.) GEOMETRIC_REPRESENTATION_ITEM() 
RATIONAL_B_SPLINE_SURFACE((
    (1.,0.999999999963,1.000000000017,0.999999999995,1.000000000001,1.
      ,1.,1.,1.,1.,1.,1.,1.,1.,1.,1.,1.,1.,1.,1.,1.,1.,1.,1.,1.,1.,1.,1.
      ,1.,1.,1.,1.,1.,1.,1.,1.,1.,1.,1.,1.,1.,1.,1.,1.,1.,1.,1.,1.,1.,1.
      ,1.,1.,1.,0.999999999998,1.000000000006,0.999999999986,1.)
    ,(1.,0.999999999963,1.000000000017,0.999999999995,1.000000000001,1.
      ,1.,1.,1.,1.,1.,1.,1.,1.,1.,1.,1.,1.,1.,1.,1.,1.,1.,1.,1.,1.,1.,1.
      ,1.,1.,1.,1.,1.,1.,1.,1.,1.,1.,1.,1.,1.,1.,1.,1.,1.,1.,1.,1.,1.,1.
      ,1.,1.,1.,0.999999999998,1.000000000006,0.999999999986,1.
))) REPRESENTATION_ITEM('') SURFACE() );
#451 = CARTESIAN_POINT('',(50.047588920907,-25.,2.180969368267));
#452 = CARTESIAN_POINT('',(50.111030748958,-25.00000000092,
    0.725144026838));
#453 = CARTESIAN_POINT('',(50.110788957587,-24.99999999957,
    -2.192044913807));
#454 = CARTESIAN_POINT('',(49.729052967912,-25.00000000011,
    -6.55114682437));
#455 = CARTESIAN_POINT('',(48.968848842105,-24.99999999996,
    -10.86039020751));
#456 = CARTESIAN_POINT('',(47.835962212646,-25.,-15.0869795558));
#457 = CARTESIAN_POINT('',(46.339015025471,-24.99999999999,
    -19.19874785516));
#458 = CARTESIAN_POINT('',(44.489399953994,-25.,-23.16440209745));
#459 = CARTESIAN_POINT('',(42.301193685351,-25.,-26.95376125096));
#460 = CARTESIAN_POINT('',(39.791049790626,-25.,-30.5379860067));
#461 = CARTESIAN_POINT('',(36.978071980495,-25.,-33.88979824945));
#462 = CARTESIAN_POINT('',(33.883668714624,-25.,-36.98368866435));
#463 = CARTESIAN_POINT('',(30.531390270316,-25.,-39.79611087714));
#464 = CARTESIAN_POINT('',(26.946749510693,-25.,-42.3056606566));
#465 = CARTESIAN_POINT('',(23.157027716402,-25.,-44.49323881362));
#466 = CARTESIAN_POINT('',(19.191066958593,-25.,-46.34219655751));
#467 = CARTESIAN_POINT('',(15.079050593346,-25.,-47.83846220341));
#468 = CARTESIAN_POINT('',(10.852273548104,-25.,-48.97064826629));
#469 = CARTESIAN_POINT('',(6.54290414838,-25.,-49.73013812658));
#470 = CARTESIAN_POINT('',(2.183739297372,-25.,-50.11115160785));
#471 = CARTESIAN_POINT('',(-2.192045128266,-25.,-50.11078896744));
#472 = CARTESIAN_POINT('',(-6.551146766886,-25.,-49.72905296527));
#473 = CARTESIAN_POINT('',(-10.86039022291,-25.,-48.96884884281));
#474 = CARTESIAN_POINT('',(-15.08697955167,-25.,-47.83596221245));
#475 = CARTESIAN_POINT('',(-19.19874785626,-25.,-46.33901502552));
#476 = CARTESIAN_POINT('',(-23.16440209716,-25.,-44.48939995398));
#477 = CARTESIAN_POINT('',(-26.95376125104,-25.,-42.30119368535));
#478 = CARTESIAN_POINT('',(-30.53798600667,-25.,-39.79104979062));
#479 = CARTESIAN_POINT('',(-33.88979824946,-25.,-36.97807198049));
#480 = CARTESIAN_POINT('',(-36.98368866435,-25.,-33.88366871462));
#481 = CARTESIAN_POINT('',(-39.79611087714,-25.,-30.53139027031));
#482 = CARTESIAN_POINT('',(-42.3056606566,-25.,-26.94674951069));
#483 = CARTESIAN_POINT('',(-44.49323881362,-25.,-23.1570277164));
#484 = CARTESIAN_POINT('',(-46.34219655751,-25.,-19.19106695859));
#485 = CARTESIAN_POINT('',(-47.83846220341,-25.,-15.07905059334));
#486 = CARTESIAN_POINT('',(-48.97064826629,-25.,-10.8522735481));
#487 = CARTESIAN_POINT('',(-49.7301381266,-25.,-6.54290414838));
#488 = CARTESIAN_POINT('',(-50.11115160779,-25.,-2.183739297372));
#489 = CARTESIAN_POINT('',(-50.11078896765,-25.,2.192045128266));
#490 = CARTESIAN_POINT('',(-49.72905296448,-25.,6.551146766886));
#491 = CARTESIAN_POINT('',(-48.96884884573,-25.,10.860390222915));
#492 = CARTESIAN_POINT('',(-47.83596220153,-25.,15.086979551683));
#493 = CARTESIAN_POINT('',(-46.33901506627,-25.,19.198747856226));
#494 = CARTESIAN_POINT('',(-44.48939980187,-25.,23.164402097321));
#495 = CARTESIAN_POINT('',(-42.30119425302,-25.,26.953761250442));
#496 = CARTESIAN_POINT('',(-39.79104767206,-25.,30.537986008922));
#497 = CARTESIAN_POINT('',(-36.97807988705,-25.,33.889798241097));
#498 = CARTESIAN_POINT('',(-33.88363920693,-25.,36.983688695582));
#499 = CARTESIAN_POINT('',(-30.53150039452,-24.99999999999,
    39.796110760592));
#500 = CARTESIAN_POINT('',(-26.94633852154,-25.,42.305661091581));
#501 = CARTESIAN_POINT('',(-23.15856154879,-24.99999999999,
    44.493237190283));
#502 = CARTESIAN_POINT('',(-19.18534261815,-25.00000000003,
    46.342202615894));
#503 = CARTESIAN_POINT('',(-15.1004141227,-24.99999999987,47.83843959322
    ));
#504 = CARTESIAN_POINT('',(-10.77254377109,-25.00000000047,
    48.970732648691));
#505 = CARTESIAN_POINT('',(-6.872163302892,-24.99999999824,
    49.723702817903));
#506 = CARTESIAN_POINT('',(-3.088471810568,-25.00000000368,
    49.978620853509));
#507 = CARTESIAN_POINT('',(2.180969368267,-25.,50.047588920907));
#508 = CARTESIAN_POINT('',(50.047588920907,25.,2.180969368267));
#509 = CARTESIAN_POINT('',(50.111030748958,25.000000000922,
    0.725144026838));
#510 = CARTESIAN_POINT('',(50.110788957587,24.999999999572,
    -2.192044913807));
#511 = CARTESIAN_POINT('',(49.729052967912,25.000000000115,
    -6.55114682437));
#512 = CARTESIAN_POINT('',(48.968848842105,24.999999999969,
    -10.86039020751));
#513 = CARTESIAN_POINT('',(47.835962212646,25.000000000008,
    -15.0869795558));
#514 = CARTESIAN_POINT('',(46.339015025471,24.999999999998,
    -19.19874785516));
#515 = CARTESIAN_POINT('',(44.489399953994,25.000000000001,
    -23.16440209745));
#516 = CARTESIAN_POINT('',(42.301193685351,25.,-26.95376125096));
#517 = CARTESIAN_POINT('',(39.791049790626,25.,-30.5379860067));
#518 = CARTESIAN_POINT('',(36.978071980495,25.,-33.88979824945));
#519 = CARTESIAN_POINT('',(33.883668714624,25.,-36.98368866435));
#520 = CARTESIAN_POINT('',(30.531390270316,25.,-39.79611087714));
#521 = CARTESIAN_POINT('',(26.946749510693,25.,-42.3056606566));
#522 = CARTESIAN_POINT('',(23.157027716402,25.,-44.49323881362));
#523 = CARTESIAN_POINT('',(19.191066958593,25.,-46.34219655751));
#524 = CARTESIAN_POINT('',(15.079050593346,25.,-47.83846220341));
#525 = CARTESIAN_POINT('',(10.852273548104,25.,-48.97064826629));
#526 = CARTESIAN_POINT('',(6.54290414838,25.,-49.73013812658));
#527 = CARTESIAN_POINT('',(2.183739297372,25.,-50.11115160785));
#528 = CARTESIAN_POINT('',(-2.192045128266,25.,-50.11078896744));
#529 = CARTESIAN_POINT('',(-6.551146766886,25.,-49.72905296527));
#530 = CARTESIAN_POINT('',(-10.86039022291,25.,-48.96884884281));
#531 = CARTESIAN_POINT('',(-15.08697955167,25.,-47.83596221245));
#532 = CARTESIAN_POINT('',(-19.19874785626,25.,-46.33901502552));
#533 = CARTESIAN_POINT('',(-23.16440209716,25.,-44.48939995398));
#534 = CARTESIAN_POINT('',(-26.95376125104,25.,-42.30119368535));
#535 = CARTESIAN_POINT('',(-30.53798600667,25.,-39.79104979062));
#536 = CARTESIAN_POINT('',(-33.88979824946,25.,-36.97807198049));
#537 = CARTESIAN_POINT('',(-36.98368866435,25.,-33.88366871462));
#538 = CARTESIAN_POINT('',(-39.79611087714,25.,-30.53139027031));
#539 = CARTESIAN_POINT('',(-42.3056606566,25.,-26.94674951069));
#540 = CARTESIAN_POINT('',(-44.49323881362,25.,-23.1570277164));
#541 = CARTESIAN_POINT('',(-46.34219655751,25.,-19.19106695859));
#542 = CARTESIAN_POINT('',(-47.83846220341,25.,-15.07905059334));
#543 = CARTESIAN_POINT('',(-48.97064826629,25.,-10.8522735481));
#544 = CARTESIAN_POINT('',(-49.7301381266,25.,-6.54290414838));
#545 = CARTESIAN_POINT('',(-50.11115160779,25.,-2.183739297372));
#546 = CARTESIAN_POINT('',(-50.11078896765,25.,2.192045128266));
#547 = CARTESIAN_POINT('',(-49.72905296448,25.,6.551146766886));
#548 = CARTESIAN_POINT('',(-48.96884884573,25.,10.860390222915));
#549 = CARTESIAN_POINT('',(-47.83596220153,25.,15.086979551683));
#550 = CARTESIAN_POINT('',(-46.33901506627,25.,19.198747856226));
#551 = CARTESIAN_POINT('',(-44.48939980187,25.,23.164402097321));
#552 = CARTESIAN_POINT('',(-42.30119425302,25.,26.953761250442));
#553 = CARTESIAN_POINT('',(-39.79104767206,25.,30.537986008922));
#554 = CARTESIAN_POINT('',(-36.97807988705,25.,33.889798241097));
#555 = CARTESIAN_POINT('',(-33.88363920693,25.,36.983688695582));
#556 = CARTESIAN_POINT('',(-30.53150039452,24.999999999999,
    39.796110760592));
#557 = CARTESIAN_POINT('',(-26.94633852154,25.000000000002,
    42.305661091581));
#558 = CARTESIAN_POINT('',(-23.15856154879,24.999999999991,
    44.493237190283));
#559 = CARTESIAN_POINT('',(-19.18534261815,25.000000000034,
    46.342202615894));
#560 = CARTESIAN_POINT('',(-15.1004141227,24.999999999873,47.83843959322
    ));
#561 = CARTESIAN_POINT('',(-10.77254377109,25.000000000475,
    48.970732648691));
#562 = CARTESIAN_POINT('',(-6.872163302892,24.999999998245,
    49.723702817903));
#563 = CARTESIAN_POINT('',(-3.088471810568,25.000000003686,
    49.978620853509));
#564 = CARTESIAN_POINT('',(2.180969368267,25.,50.047588920907));
#565 = DEFINITIONAL_REPRESENTATION('',(#566),#570);
#566 = LINE('',#567,#568);
#567 = CARTESIAN_POINT('',(4.,0.));
#568 = VECTOR('',#569,1.);
#569 = DIRECTION('',(0.,1.));
#570 = ( GEOMETRIC_REPRESENTATION_CONTEXT(2) 
PARAMETRIC_REPRESENTATION_CONTEXT() REPRESENTATION_CONTEXT('2D SPACE',''
  ) );
#571 = ADVANCED_FACE('',(#572),#234,.T.);
#572 = FACE_BOUND('',#573,.T.);
#573 = EDGE_LOOP('',(#574,#595,#787,#806));
#574 = ORIENTED_EDGE('',*,*,#575,.T.);
#575 = EDGE_CURVE('',#24,#576,#578,.T.);
#576 = VERTEX_POINT('',#577);
#577 = CARTESIAN_POINT('',(149.95241107909,-25.,-2.180969368267));
#578 = SURFACE_CURVE('',#579,(#582,#589),.PCURVE_S1.);
#579 = B_SPLINE_CURVE_WITH_KNOTS('',1,(#580,#581),.UNSPECIFIED.,.F.,.F.,
  (2,2),(1.,2.),.PIECEWISE_BEZIER_KNOTS.);
#580 = CARTESIAN_POINT('',(149.95241107909,25.,-2.180969368267));
#581 = CARTESIAN_POINT('',(149.95241107909,-25.,-2.180969368267));
#582 = PCURVE('',#234,#583);
#583 = DEFINITIONAL_REPRESENTATION('',(#584),#588);
#584 = LINE('',#585,#586);
#585 = CARTESIAN_POINT('',(0.,0.));
#586 = VECTOR('',#587,1.);
#587 = DIRECTION('',(1.,0.));
#588 = ( GEOMETRIC_REPRESENTATION_CONTEXT(2) 
PARAMETRIC_REPRESENTATION_CONTEXT() REPRESENTATION_CONTEXT('2D SPACE',''
  ) );
#589 = PCURVE('',#153,#590);
#590 = DEFINITIONAL_REPRESENTATION('',(#591),#594);
#591 = B_SPLINE_CURVE_WITH_KNOTS('',1,(#592,#593),.UNSPECIFIED.,.F.,.F.,
  (2,2),(1.,2.),.PIECEWISE_BEZIER_KNOTS.);
#592 = CARTESIAN_POINT('',(89.442719099992,44.721359549996));
#593 = CARTESIAN_POINT('',(111.80339887498,7.105427357601E-15));
#594 = ( GEOMETRIC_REPRESENTATION_CONTEXT(2) 
PARAMETRIC_REPRESENTATION_CONTEXT() REPRESENTATION_CONTEXT('2D SPACE',''
  ) );
#595 = ORIENTED_EDGE('',*,*,#596,.T.);
#596 = EDGE_CURVE('',#576,#597,#599,.T.);
#597 = VERTEX_POINT('',#598);
#598 = CARTESIAN_POINT('',(-2.180969368267,-25.,149.95241107909));
#599 = SURFACE_CURVE('',#600,(#658,#665),.PCURVE_S1.);
#600 = ( BOUNDED_CURVE() B_SPLINE_CURVE(3,(#601,#602,#603,#604,#605,#606
    ,#607,#608,#609,#610,#611,#612,#613,#614,#615,#616,#617,#618,#619,
    #620,#621,#622,#623,#624,#625,#626,#627,#628,#629,#630,#631,#632,
    #633,#634,#635,#636,#637,#638,#639,#640,#641,#642,#643,#644,#645,
    #646,#647,#648,#649,#650,#651,#652,#653,#654,#655,#656,#657),
.UNSPECIFIED.,.F.,.F.) B_SPLINE_CURVE_WITH_KNOTS((4,1,1,1,1,1,1,1,1,1,1,
    1,1,1,1,1,1,1,1,1,1,1,1,1,1,1,1,1,1,1,1,1,1,1,1,1,1,1,1,1,1,1,1,1,1,
    1,1,1,1,1,1,1,1,1,4),(0.,1.852681728932E-02,3.705363457864E-02,
    5.558045186797E-02,7.410726915729E-02,9.263408644661E-02,
    0.111160903736,0.129687721025,0.148214538315,0.166741355604,
    0.185268172893,0.203794990183,0.222321807472,0.240848624761,
    0.259375442051,0.27790225934,0.296429076629,0.314955893918,
    0.333482711208,0.352009528497,0.370536345786,0.389063163076,
    0.407589980365,0.426116797654,0.444643614944,0.463170432233,
    0.481697249522,0.500224066812,0.518750884101,0.53727770139,
    0.55580451868,0.574331335969,0.592858153258,0.611384970548,
    0.629911787837,0.648438605126,0.666965422416,0.685492239705,
    0.704019056994,0.722545874284,0.741072691573,0.759599508862,
    0.778126326152,0.796653143441,0.81517996073,0.833706778019,
    0.852233595309,0.870760412598,0.889287229887,0.907814047177,
    0.926340864466,0.944867681755,0.963394499045,0.981921316334,1.),
.UNSPECIFIED.) CURVE() GEOMETRIC_REPRESENTATION_ITEM() 
RATIONAL_B_SPLINE_CURVE((1.,0.999999999963,1.000000000017,0.999999999995
    ,1.000000000001,1.,1.,1.,1.,1.,1.,1.,1.,1.,1.,1.,1.,1.,1.,1.,1.,1.,
    1.,1.,1.,1.,1.,1.,1.,1.,1.,1.,1.,1.,1.,1.,1.,1.,1.,1.,1.,1.,1.,1.,1.
    ,1.,1.,1.,1.,1.,1.,1.,1.,0.999999999998,1.000000000006,
0.999999999986,1.)) REPRESENTATION_ITEM('') );
#601 = CARTESIAN_POINT('',(149.95241107909,-25.,-2.180969368267));
#602 = CARTESIAN_POINT('',(149.88896926165,-25.00000000092,
    -6.542908168489));
#603 = CARTESIAN_POINT('',(149.38119306247,-24.99999999957,
    -15.26124112147));
#604 = CARTESIAN_POINT('',(147.48264765607,-25.00000000011,
    -28.22259713631));
#605 = CARTESIAN_POINT('',(144.46167025651,-24.99999999996,
    -40.96916111507));
#606 = CARTESIAN_POINT('',(140.3412523158,-25.,-53.40392531613));
#607 = CARTESIAN_POINT('',(135.15275270519,-24.99999999999,
    -65.43225332532));
#608 = CARTESIAN_POINT('',(128.93565903887,-25.,-76.96260239748));
#609 = CARTESIAN_POINT('',(121.73728715383,-25.,-87.90721958878));
#610 = CARTESIAN_POINT('',(113.61242100655,-25.,-98.18280976061));
#611 = CARTESIAN_POINT('',(104.62289573436,-25.,-107.7111694653));
#612 = CARTESIAN_POINT('',(94.837127052606,-25.,-116.4197821328));
#613 = CARTESIAN_POINT('',(84.329590569752,-25.,-124.242369962));
#614 = CARTESIAN_POINT('',(73.180254983063,-25.,-131.1193983362));
#615 = CARTESIAN_POINT('',(61.473973468507,-25.,-136.998528917));
#616 = CARTESIAN_POINT('',(49.299837896856,-25.,-141.8350179708));
#617 = CARTESIAN_POINT('',(36.750500790753,-25.,-145.5920568955));
#618 = CARTESIAN_POINT('',(23.921470183074,-25.,-148.2410523563));
#619 = CARTESIAN_POINT('',(10.910382743123,-25.,-149.7618438983));
#620 = CARTESIAN_POINT('',(-2.183739297372,-25.,-150.1428573796));
#621 = CARTESIAN_POINT('',(-15.26124176323,-25.,-149.3811930575));
#622 = CARTESIAN_POINT('',(-28.22259696429,-25.,-147.4826476574));
#623 = CARTESIAN_POINT('',(-40.96916116118,-25.,-144.4616702561));
#624 = CARTESIAN_POINT('',(-53.40392530377,-25.,-140.3412523159));
#625 = CARTESIAN_POINT('',(-65.43225332863,-25.,-135.1527527051));
#626 = CARTESIAN_POINT('',(-76.96260239659,-25.,-128.9356590388));
#627 = CARTESIAN_POINT('',(-87.90721958902,-25.,-121.7372871538));
#628 = CARTESIAN_POINT('',(-98.18280976055,-25.,-113.6124210065));
#629 = CARTESIAN_POINT('',(-107.7111694653,-25.,-104.6228957343));
#630 = CARTESIAN_POINT('',(-116.4197821328,-25.,-94.8371270526));
#631 = CARTESIAN_POINT('',(-124.242369962,-25.,-84.32959056975));
#632 = CARTESIAN_POINT('',(-131.1193983362,-25.,-73.18025498306));
#633 = CARTESIAN_POINT('',(-136.998528917,-25.,-61.4739734685));
#634 = CARTESIAN_POINT('',(-141.8350179708,-25.,-49.29983789685));
#635 = CARTESIAN_POINT('',(-145.5920568955,-25.,-36.75050079075));
#636 = CARTESIAN_POINT('',(-148.2410523563,-25.,-23.92147018307));
#637 = CARTESIAN_POINT('',(-149.7618438983,-25.,-10.91038274312));
#638 = CARTESIAN_POINT('',(-150.1428573797,-25.,2.183739297372));
#639 = CARTESIAN_POINT('',(-149.3811930573,-25.,15.261241763237));
#640 = CARTESIAN_POINT('',(-147.4826476581,-25.,28.222596964292));
#641 = CARTESIAN_POINT('',(-144.4616702535,-25.,40.969161161184));
#642 = CARTESIAN_POINT('',(-140.3412523257,-25.,53.403925303767));
#643 = CARTESIAN_POINT('',(-135.1527526682,-25.,65.432253328678));
#644 = CARTESIAN_POINT('',(-128.9356591766,-25.,76.962602396452));
#645 = CARTESIAN_POINT('',(-121.7372866398,-25.,87.907219589562));
#646 = CARTESIAN_POINT('',(-113.6124229249,-25.,98.182809758544));
#647 = CARTESIAN_POINT('',(-104.6228885749,-25.,107.71116947288));
#648 = CARTESIAN_POINT('',(-94.83715377204,-25.,116.41978210489));
#649 = CARTESIAN_POINT('',(-84.32949085145,-24.99999999999,
    124.2423700663));
#650 = CARTESIAN_POINT('',(-73.1806271368,-25.,131.11939794715));
#651 = CARTESIAN_POINT('',(-61.47258457183,-24.99999999999,
    136.99853036922));
#652 = CARTESIAN_POINT('',(-49.30502132979,-25.00000000003,
    141.83501255132));
#653 = CARTESIAN_POINT('',(-36.73115595568,-24.99999999987,
    145.59207712148));
#654 = CARTESIAN_POINT('',(-23.99366609039,-25.00000000047,
    148.24097687216));
#655 = CARTESIAN_POINT('',(-10.7486041704,-24.99999999824,
    149.74986090343));
#656 = CARTESIAN_POINT('',(-2.95226778659,-25.00000000368,
    150.00901200693));
#657 = CARTESIAN_POINT('',(-2.180969368267,-25.,149.95241107909));
#658 = PCURVE('',#234,#659);
#659 = DEFINITIONAL_REPRESENTATION('',(#660),#664);
#660 = LINE('',#661,#662);
#661 = CARTESIAN_POINT('',(2.,0.));
#662 = VECTOR('',#663,1.);
#663 = DIRECTION('',(0.,1.));
#664 = ( GEOMETRIC_REPRESENTATION_CONTEXT(2) 
PARAMETRIC_REPRESENTATION_CONTEXT() REPRESENTATION_CONTEXT('2D SPACE',''
  ) );
#665 = PCURVE('',#666,#781);
#666 = ( BOUNDED_SURFACE() B_SPLINE_SURFACE(1,3,(
    (#667,#668,#669,#670,#671,#672,#673,#674,#675,#676,#677,#678,#679
      ,#680,#681,#682,#683,#684,#685,#686,#687,#688,#689,#690,#691,#692
      ,#693,#694,#695,#696,#697,#698,#699,#700,#701,#702,#703,#704,#705
      ,#706,#707,#708,#709,#710,#711,#712,#713,#714,#715,#716,#717,#718
      ,#719,#720,#721,#722,#723)
    ,(#724,#725,#726,#727,#728,#729,#730,#731,#732,#733,#734,#735,#736
      ,#737,#738,#739,#740,#741,#742,#743,#744,#745,#746,#747,#748,#749
      ,#750,#751,#752,#753,#754,#755,#756,#757,#758,#759,#760,#761,#762
      ,#763,#764,#765,#766,#767,#768,#769,#770,#771,#772,#773,#774,#775
      ,#776,#777,#778,#779,#780
)),.UNSPECIFIED.,.F.,.F.,.F.) B_SPLINE_SURFACE_WITH_KNOTS((2,2),(4,1,1,1
    ,1,1,1,1,1,1,1,1,1,1,1,1,1,1,1,1,1,1,1,1,1,1,1,1,1,1,1,1,1,1,1,1,1,1
    ,1,1,1,1,1,1,1,1,1,1,1,1,1,1,1,1,4),(2.,3.),(0.,1.852681728932E-02,
    3.705363457864E-02,5.558045186797E-02,7.410726915729E-02,
    9.263408644661E-02,0.111160903736,0.129687721025,0.148214538315,
    0.166741355604,0.185268172893,0.203794990183,0.222321807472,
    0.240848624761,0.259375442051,0.27790225934,0.296429076629,
    0.314955893918,0.333482711208,0.352009528497,0.370536345786,
    0.389063163076,0.407589980365,0.426116797654,0.444643614944,
    0.463170432233,0.481697249522,0.500224066812,0.518750884101,
    0.53727770139,0.55580451868,0.574331335969,0.592858153258,
    0.611384970548,0.629911787837,0.648438605126,0.666965422416,
    0.685492239705,0.704019056994,0.722545874284,0.741072691573,
    0.759599508862,0.778126326152,0.796653143441,0.81517996073,
    0.833706778019,0.852233595309,0.870760412598,0.889287229887,
    0.907814047177,0.926340864466,0.944867681755,0.963394499045,
0.981921316334,1.),.UNSPECIFIED.) GEOMETRIC_REPRESENTATION_ITEM() 
RATIONAL_B_SPLINE_SURFACE((
    (1.,0.999999999963,1.000000000017,0.999999999995,1.000000000001,1.
      ,1.,1.,1.,1.,1.,1.,1.,1.,1.,1.,1.,1.,1.,1.,1.,1.,1.,1.,1.,1.,1.,1.
      ,1.,1.,1.,1.,1.,1.,1.,1.,1.,1.,1.,1.,1.,1.,1.,1.,1.,1.,1.,1.,1.,1.
      ,1.,1.,1.,0.999999999998,1.000000000006,0.999999999986,1.)
    ,(1.,0.999999999963,1.000000000017,0.999999999995,1.000000000001,1.
      ,1.,1.,1.,1.,1.,1.,1.,1.,1.,1.,1.,1.,1.,1.,1.,1.,1.,1.,1.,1.,1.,1.
      ,1.,1.,1.,1.,1.,1.,1.,1.,1.,1.,1.,1.,1.,1.,1.,1.,1.,1.,1.,1.,1.,1.
      ,1.,1.,1.,0.999999999998,1.000000000006,0.999999999986,1.
))) REPRESENTATION_ITEM('') SURFACE() );
#667 = CARTESIAN_POINT('',(149.95241107909,-25.,-2.180969368267));
#668 = CARTESIAN_POINT('',(149.88896926165,-25.00000000092,
    -6.542908168489));
#669 = CARTESIAN_POINT('',(149.38119306247,-24.99999999957,
    -15.26124112147));
#670 = CARTESIAN_POINT('',(147.48264765607,-25.00000000011,
    -28.22259713631));
#671 = CARTESIAN_POINT('',(144.46167025651,-24.99999999996,
    -40.96916111507));
#672 = CARTESIAN_POINT('',(140.3412523158,-25.,-53.40392531613));
#673 = CARTESIAN_POINT('',(135.15275270519,-24.99999999999,
    -65.43225332532));
#674 = CARTESIAN_POINT('',(128.93565903887,-25.,-76.96260239748));
#675 = CARTESIAN_POINT('',(121.73728715383,-25.,-87.90721958878));
#676 = CARTESIAN_POINT('',(113.61242100655,-25.,-98.18280976061));
#677 = CARTESIAN_POINT('',(104.62289573436,-25.,-107.7111694653));
#678 = CARTESIAN_POINT('',(94.837127052606,-25.,-116.4197821328));
#679 = CARTESIAN_POINT('',(84.329590569752,-25.,-124.242369962));
#680 = CARTESIAN_POINT('',(73.180254983063,-25.,-131.1193983362));
#681 = CARTESIAN_POINT('',(61.473973468507,-25.,-136.998528917));
#682 = CARTESIAN_POINT('',(49.299837896856,-25.,-141.8350179708));
#683 = CARTESIAN_POINT('',(36.750500790753,-25.,-145.5920568955));
#684 = CARTESIAN_POINT('',(23.921470183074,-25.,-148.2410523563));
#685 = CARTESIAN_POINT('',(10.910382743123,-25.,-149.7618438983));
#686 = CARTESIAN_POINT('',(-2.183739297372,-25.,-150.1428573796));
#687 = CARTESIAN_POINT('',(-15.26124176323,-25.,-149.3811930575));
#688 = CARTESIAN_POINT('',(-28.22259696429,-25.,-147.4826476574));
#689 = CARTESIAN_POINT('',(-40.96916116118,-25.,-144.4616702561));
#690 = CARTESIAN_POINT('',(-53.40392530377,-25.,-140.3412523159));
#691 = CARTESIAN_POINT('',(-65.43225332863,-25.,-135.1527527051));
#692 = CARTESIAN_POINT('',(-76.96260239659,-25.,-128.9356590388));
#693 = CARTESIAN_POINT('',(-87.90721958902,-25.,-121.7372871538));
#694 = CARTESIAN_POINT('',(-98.18280976055,-25.,-113.6124210065));
#695 = CARTESIAN_POINT('',(-107.7111694653,-25.,-104.6228957343));
#696 = CARTESIAN_POINT('',(-116.4197821328,-25.,-94.8371270526));
#697 = CARTESIAN_POINT('',(-124.242369962,-25.,-84.32959056975));
#698 = CARTESIAN_POINT('',(-131.1193983362,-25.,-73.18025498306));
#699 = CARTESIAN_POINT('',(-136.998528917,-25.,-61.4739734685));
#700 = CARTESIAN_POINT('',(-141.8350179708,-25.,-49.29983789685));
#701 = CARTESIAN_POINT('',(-145.5920568955,-25.,-36.75050079075));
#702 = CARTESIAN_POINT('',(-148.2410523563,-25.,-23.92147018307));
#703 = CARTESIAN_POINT('',(-149.7618438983,-25.,-10.91038274312));
#704 = CARTESIAN_POINT('',(-150.1428573797,-25.,2.183739297372));
#705 = CARTESIAN_POINT('',(-149.3811930573,-25.,15.261241763237));
#706 = CARTESIAN_POINT('',(-147.4826476581,-25.,28.222596964292));
#707 = CARTESIAN_POINT('',(-144.4616702535,-25.,40.969161161184));
#708 = CARTESIAN_POINT('',(-140.3412523257,-25.,53.403925303767));
#709 = CARTESIAN_POINT('',(-135.1527526682,-25.,65.432253328678));
#710 = CARTESIAN_POINT('',(-128.9356591766,-25.,76.962602396452));
#711 = CARTESIAN_POINT('',(-121.7372866398,-25.,87.907219589562));
#712 = CARTESIAN_POINT('',(-113.6124229249,-25.,98.182809758544));
#713 = CARTESIAN_POINT('',(-104.6228885749,-25.,107.71116947288));
#714 = CARTESIAN_POINT('',(-94.83715377204,-25.,116.41978210489));
#715 = CARTESIAN_POINT('',(-84.32949085145,-24.99999999999,
    124.2423700663));
#716 = CARTESIAN_POINT('',(-73.1806271368,-25.,131.11939794715));
#717 = CARTESIAN_POINT('',(-61.47258457183,-24.99999999999,
    136.99853036922));
#718 = CARTESIAN_POINT('',(-49.30502132979,-25.00000000003,
    141.83501255132));
#719 = CARTESIAN_POINT('',(-36.73115595568,-24.99999999987,
    145.59207712148));
#720 = CARTESIAN_POINT('',(-23.99366609039,-25.00000000047,
    148.24097687216));
#721 = CARTESIAN_POINT('',(-10.7486041704,-24.99999999824,
    149.74986090343));
#722 = CARTESIAN_POINT('',(-2.95226778659,-25.00000000368,
    150.00901200693));
#723 = CARTESIAN_POINT('',(-2.180969368267,-25.,149.95241107909));
#724 = CARTESIAN_POINT('',(50.047588920907,-25.,2.180969368267));
#725 = CARTESIAN_POINT('',(50.111030748958,-25.00000000092,
    0.725144026838));
#726 = CARTESIAN_POINT('',(50.110788957587,-24.99999999957,
    -2.192044913807));
#727 = CARTESIAN_POINT('',(49.729052967912,-25.00000000011,
    -6.55114682437));
#728 = CARTESIAN_POINT('',(48.968848842105,-24.99999999996,
    -10.86039020751));
#729 = CARTESIAN_POINT('',(47.835962212646,-25.,-15.0869795558));
#730 = CARTESIAN_POINT('',(46.339015025471,-24.99999999999,
    -19.19874785516));
#731 = CARTESIAN_POINT('',(44.489399953994,-25.,-23.16440209745));
#732 = CARTESIAN_POINT('',(42.301193685351,-25.,-26.95376125096));
#733 = CARTESIAN_POINT('',(39.791049790626,-25.,-30.5379860067));
#734 = CARTESIAN_POINT('',(36.978071980495,-25.,-33.88979824945));
#735 = CARTESIAN_POINT('',(33.883668714624,-25.,-36.98368866435));
#736 = CARTESIAN_POINT('',(30.531390270316,-25.,-39.79611087714));
#737 = CARTESIAN_POINT('',(26.946749510693,-25.,-42.3056606566));
#738 = CARTESIAN_POINT('',(23.157027716402,-25.,-44.49323881362));
#739 = CARTESIAN_POINT('',(19.191066958593,-25.,-46.34219655751));
#740 = CARTESIAN_POINT('',(15.079050593346,-25.,-47.83846220341));
#741 = CARTESIAN_POINT('',(10.852273548104,-25.,-48.97064826629));
#742 = CARTESIAN_POINT('',(6.54290414838,-25.,-49.73013812658));
#743 = CARTESIAN_POINT('',(2.183739297372,-25.,-50.11115160785));
#744 = CARTESIAN_POINT('',(-2.192045128266,-25.,-50.11078896744));
#745 = CARTESIAN_POINT('',(-6.551146766886,-25.,-49.72905296527));
#746 = CARTESIAN_POINT('',(-10.86039022291,-25.,-48.96884884281));
#747 = CARTESIAN_POINT('',(-15.08697955167,-25.,-47.83596221245));
#748 = CARTESIAN_POINT('',(-19.19874785626,-25.,-46.33901502552));
#749 = CARTESIAN_POINT('',(-23.16440209716,-25.,-44.48939995398));
#750 = CARTESIAN_POINT('',(-26.95376125104,-25.,-42.30119368535));
#751 = CARTESIAN_POINT('',(-30.53798600667,-25.,-39.79104979062));
#752 = CARTESIAN_POINT('',(-33.88979824946,-25.,-36.97807198049));
#753 = CARTESIAN_POINT('',(-36.98368866435,-25.,-33.88366871462));
#754 = CARTESIAN_POINT('',(-39.79611087714,-25.,-30.53139027031));
#755 = CARTESIAN_POINT('',(-42.3056606566,-25.,-26.94674951069));
#756 = CARTESIAN_POINT('',(-44.49323881362,-25.,-23.1570277164));
#757 = CARTESIAN_POINT('',(-46.34219655751,-25.,-19.19106695859));
#758 = CARTESIAN_POINT('',(-47.83846220341,-25.,-15.07905059334));
#759 = CARTESIAN_POINT('',(-48.97064826629,-25.,-10.8522735481));
#760 = CARTESIAN_POINT('',(-49.7301381266,-25.,-6.54290414838));
#761 = CARTESIAN_POINT('',(-50.11115160779,-25.,-2.183739297372));
#762 = CARTESIAN_POINT('',(-50.11078896765,-25.,2.192045128266));
#763 = CARTESIAN_POINT('',(-49.72905296448,-25.,6.551146766886));
#764 = CARTESIAN_POINT('',(-48.96884884573,-25.,10.860390222915));
#765 = CARTESIAN_POINT('',(-47.83596220153,-25.,15.086979551683));
#766 = CARTESIAN_POINT('',(-46.33901506627,-25.,19.198747856226));
#767 = CARTESIAN_POINT('',(-44.48939980187,-25.,23.164402097321));
#768 = CARTESIAN_POINT('',(-42.30119425302,-25.,26.953761250442));
#769 = CARTESIAN_POINT('',(-39.79104767206,-25.,30.537986008922));
#770 = CARTESIAN_POINT('',(-36.97807988705,-25.,33.889798241097));
#771 = CARTESIAN_POINT('',(-33.88363920693,-25.,36.983688695582));
#772 = CARTESIAN_POINT('',(-30.53150039452,-24.99999999999,
    39.796110760592));
#773 = CARTESIAN_POINT('',(-26.94633852154,-25.,42.305661091581));
#774 = CARTESIAN_POINT('',(-23.15856154879,-24.99999999999,
    44.493237190283));
#775 = CARTESIAN_POINT('',(-19.18534261815,-25.00000000003,
    46.342202615894));
#776 = CARTESIAN_POINT('',(-15.1004141227,-24.99999999987,47.83843959322
    ));
#777 = CARTESIAN_POINT('',(-10.77254377109,-25.00000000047,
    48.970732648691));
#778 = CARTESIAN_POINT('',(-6.872163302892,-24.99999999824,
    49.723702817903));
#779 = CARTESIAN_POINT('',(-3.088471810568,-25.00000000368,
    49.978620853509));
#780 = CARTESIAN_POINT('',(2.180969368267,-25.,50.047588920907));
#781 = DEFINITIONAL_REPRESENTATION('',(#782),#786);
#782 = LINE('',#783,#784);
#783 = CARTESIAN_POINT('',(2.,0.));
#784 = VECTOR('',#785,1.);
#785 = DIRECTION('',(0.,1.));
#786 = ( GEOMETRIC_REPRESENTATION_CONTEXT(2) 
PARAMETRIC_REPRESENTATION_CONTEXT() REPRESENTATION_CONTEXT('2D SPACE',''
  ) );
#787 = ORIENTED_EDGE('',*,*,#788,.F.);
#788 = EDGE_CURVE('',#165,#597,#789,.T.);
#789 = SURFACE_CURVE('',#790,(#793,#800),.PCURVE_S1.);
#790 = B_SPLINE_CURVE_WITH_KNOTS('',1,(#791,#792),.UNSPECIFIED.,.F.,.F.,
  (2,2),(1.,2.),.PIECEWISE_BEZIER_KNOTS.);
#791 = CARTESIAN_POINT('',(-2.180969368267,25.,149.95241107909));
#792 = CARTESIAN_POINT('',(-2.180969368267,-25.,149.95241107909));
#793 = PCURVE('',#234,#794);
#794 = DEFINITIONAL_REPRESENTATION('',(#795),#799);
#795 = LINE('',#796,#797);
#796 = CARTESIAN_POINT('',(0.,1.));
#797 = VECTOR('',#798,1.);
#798 = DIRECTION('',(1.,0.));
#799 = ( GEOMETRIC_REPRESENTATION_CONTEXT(2) 
PARAMETRIC_REPRESENTATION_CONTEXT() REPRESENTATION_CONTEXT('2D SPACE',''
  ) );
#800 = PCURVE('',#371,#801);
#801 = DEFINITIONAL_REPRESENTATION('',(#802),#805);
#802 = B_SPLINE_CURVE_WITH_KNOTS('',1,(#803,#804),.UNSPECIFIED.,.F.,.F.,
  (2,2),(1.,2.),.PIECEWISE_BEZIER_KNOTS.);
#803 = CARTESIAN_POINT('',(89.442719099992,44.721359549996));
#804 = CARTESIAN_POINT('',(111.80339887498,0.));
#805 = ( GEOMETRIC_REPRESENTATION_CONTEXT(2) 
PARAMETRIC_REPRESENTATION_CONTEXT() REPRESENTATION_CONTEXT('2D SPACE',''
  ) );
#806 = ORIENTED_EDGE('',*,*,#164,.F.);
#807 = ADVANCED_FACE('',(#808),#666,.T.);
#808 = FACE_BOUND('',#809,.T.);
#809 = EDGE_LOOP('',(#810,#831,#908,#927));
#810 = ORIENTED_EDGE('',*,*,#811,.T.);
#811 = EDGE_CURVE('',#576,#812,#814,.T.);
#812 = VERTEX_POINT('',#813);
#813 = CARTESIAN_POINT('',(50.047588920907,-25.,2.180969368267));
#814 = SURFACE_CURVE('',#815,(#818,#825),.PCURVE_S1.);
#815 = B_SPLINE_CURVE_WITH_KNOTS('',1,(#816,#817),.UNSPECIFIED.,.F.,.F.,
  (2,2),(2.,3.),.PIECEWISE_BEZIER_KNOTS.);
#816 = CARTESIAN_POINT('',(149.95241107909,-25.,-2.180969368267));
#817 = CARTESIAN_POINT('',(50.047588920907,-25.,2.180969368267));
#818 = PCURVE('',#666,#819);
#819 = DEFINITIONAL_REPRESENTATION('',(#820),#824);
#820 = LINE('',#821,#822);
#821 = CARTESIAN_POINT('',(0.,0.));
#822 = VECTOR('',#823,1.);
#823 = DIRECTION('',(1.,0.));
#824 = ( GEOMETRIC_REPRESENTATION_CONTEXT(2) 
PARAMETRIC_REPRESENTATION_CONTEXT() REPRESENTATION_CONTEXT('2D SPACE',''
  ) );
#825 = PCURVE('',#153,#826);
#826 = DEFINITIONAL_REPRESENTATION('',(#827),#830);
#827 = B_SPLINE_CURVE_WITH_KNOTS('',1,(#828,#829),.UNSPECIFIED.,.F.,.F.,
  (2,2),(2.,3.),.PIECEWISE_BEZIER_KNOTS.);
#828 = CARTESIAN_POINT('',(111.80339887498,7.105427357601E-15));
#829 = CARTESIAN_POINT('',(22.360679774998,-44.72135954999));
#830 = ( GEOMETRIC_REPRESENTATION_CONTEXT(2) 
PARAMETRIC_REPRESENTATION_CONTEXT() REPRESENTATION_CONTEXT('2D SPACE',''
  ) );
#831 = ORIENTED_EDGE('',*,*,#832,.T.);
#832 = EDGE_CURVE('',#812,#833,#835,.T.);
#833 = VERTEX_POINT('',#834);
#834 = CARTESIAN_POINT('',(2.180969368267,-25.,50.047588920907));
#835 = SURFACE_CURVE('',#836,(#894,#901),.PCURVE_S1.);
#836 = ( BOUNDED_CURVE() B_SPLINE_CURVE(3,(#837,#838,#839,#840,#841,#842
    ,#843,#844,#845,#846,#847,#848,#849,#850,#851,#852,#853,#854,#855,
    #856,#857,#858,#859,#860,#861,#862,#863,#864,#865,#866,#867,#868,
    #869,#870,#871,#872,#873,#874,#875,#876,#877,#878,#879,#880,#881,
    #882,#883,#884,#885,#886,#887,#888,#889,#890,#891,#892,#893),
.UNSPECIFIED.,.F.,.F.) B_SPLINE_CURVE_WITH_KNOTS((4,1,1,1,1,1,1,1,1,1,1,
    1,1,1,1,1,1,1,1,1,1,1,1,1,1,1,1,1,1,1,1,1,1,1,1,1,1,1,1,1,1,1,1,1,1,
    1,1,1,1,1,1,1,1,1,4),(0.,1.852681728932E-02,3.705363457864E-02,
    5.558045186797E-02,7.410726915729E-02,9.263408644661E-02,
    0.111160903736,0.129687721025,0.148214538315,0.166741355604,
    0.185268172893,0.203794990183,0.222321807472,0.240848624761,
    0.259375442051,0.27790225934,0.296429076629,0.314955893918,
    0.333482711208,0.352009528497,0.370536345786,0.389063163076,
    0.407589980365,0.426116797654,0.444643614944,0.463170432233,
    0.481697249522,0.500224066812,0.518750884101,0.53727770139,
    0.55580451868,0.574331335969,0.592858153258,0.611384970548,
    0.629911787837,0.648438605126,0.666965422416,0.685492239705,
    0.704019056994,0.722545874284,0.741072691573,0.759599508862,
    0.778126326152,0.796653143441,0.81517996073,0.833706778019,
    0.852233595309,0.870760412598,0.889287229887,0.907814047177,
    0.926340864466,0.944867681755,0.963394499045,0.981921316334,1.),
.UNSPECIFIED.) CURVE() GEOMETRIC_REPRESENTATION_ITEM() 
RATIONAL_B_SPLINE_CURVE((1.,0.999999999963,1.000000000017,0.999999999995
    ,1.000000000001,1.,1.,1.,1.,1.,1.,1.,1.,1.,1.,1.,1.,1.,1.,1.,1.,1.,
    1.,1.,1.,1.,1.,1.,1.,1.,1.,1.,1.,1.,1.,1.,1.,1.,1.,1.,1.,1.,1.,1.,1.
    ,1.,1.,1.,1.,1.,1.,1.,1.,0.999999999998,1.000000000006,
0.999999999986,1.)) REPRESENTATION_ITEM('') );
#837 = CARTESIAN_POINT('',(50.047588920907,-25.,2.180969368267));
#838 = CARTESIAN_POINT('',(50.111030748958,-25.00000000092,
    0.725144026838));
#839 = CARTESIAN_POINT('',(50.110788957587,-24.99999999957,
    -2.192044913807));
#840 = CARTESIAN_POINT('',(49.729052967912,-25.00000000011,
    -6.55114682437));
#841 = CARTESIAN_POINT('',(48.968848842105,-24.99999999996,
    -10.86039020751));
#842 = CARTESIAN_POINT('',(47.835962212646,-25.,-15.0869795558));
#843 = CARTESIAN_POINT('',(46.339015025471,-24.99999999999,
    -19.19874785516));
#844 = CARTESIAN_POINT('',(44.489399953994,-25.,-23.16440209745));
#845 = CARTESIAN_POINT('',(42.301193685351,-25.,-26.95376125096));
#846 = CARTESIAN_POINT('',(39.791049790626,-25.,-30.5379860067));
#847 = CARTESIAN_POINT('',(36.978071980495,-25.,-33.88979824945));
#848 = CARTESIAN_POINT('',(33.883668714624,-25.,-36.98368866435));
#849 = CARTESIAN_POINT('',(30.531390270316,-25.,-39.79611087714));
#850 = CARTESIAN_POINT('',(26.946749510693,-25.,-42.3056606566));
#851 = CARTESIAN_POINT('',(23.157027716402,-25.,-44.49323881362));
#852 = CARTESIAN_POINT('',(19.191066958593,-25.,-46.34219655751));
#853 = CARTESIAN_POINT('',(15.079050593346,-25.,-47.83846220341));
#854 = CARTESIAN_POINT('',(10.852273548104,-25.,-48.97064826629));
#855 = CARTESIAN_POINT('',(6.54290414838,-25.,-49.73013812658));
#856 = CARTESIAN_POINT('',(2.183739297372,-25.,-50.11115160785));
#857 = CARTESIAN_POINT('',(-2.192045128266,-25.,-50.11078896744));
#858 = CARTESIAN_POINT('',(-6.551146766886,-25.,-49.72905296527));
#859 = CARTESIAN_POINT('',(-10.86039022291,-25.,-48.96884884281));
#860 = CARTESIAN_POINT('',(-15.08697955167,-25.,-47.83596221245));
#861 = CARTESIAN_POINT('',(-19.19874785626,-25.,-46.33901502552));
#862 = CARTESIAN_POINT('',(-23.16440209716,-25.,-44.48939995398));
#863 = CARTESIAN_POINT('',(-26.95376125104,-25.,-42.30119368535));
#864 = CARTESIAN_POINT('',(-30.53798600667,-25.,-39.79104979062));
#865 = CARTESIAN_POINT('',(-33.88979824946,-25.,-36.97807198049));
#866 = CARTESIAN_POINT('',(-36.98368866435,-25.,-33.88366871462));
#867 = CARTESIAN_POINT('',(-39.79611087714,-25.,-30.53139027031));
#868 = CARTESIAN_POINT('',(-42.3056606566,-25.,-26.94674951069));
#869 = CARTESIAN_POINT('',(-44.49323881362,-25.,-23.1570277164));
#870 = CARTESIAN_POINT('',(-46.34219655751,-25.,-19.19106695859));
#871 = CARTESIAN_POINT('',(-47.83846220341,-25.,-15.07905059334));
#872 = CARTESIAN_POINT('',(-48.97064826629,-25.,-10.8522735481));
#873 = CARTESIAN_POINT('',(-49.7301381266,-25.,-6.54290414838));
#874 = CARTESIAN_POINT('',(-50.11115160779,-25.,-2.183739297372));
#875 = CARTESIAN_POINT('',(-50.11078896765,-25.,2.192045128266));
#876 = CARTESIAN_POINT('',(-49.72905296448,-25.,6.551146766886));
#877 = CARTESIAN_POINT('',(-48.96884884573,-25.,10.860390222915));
#878 = CARTESIAN_POINT('',(-47.83596220153,-25.,15.086979551683));
#879 = CARTESIAN_POINT('',(-46.33901506627,-25.,19.198747856226));
#880 = CARTESIAN_POINT('',(-44.48939980187,-25.,23.164402097321));
#881 = CARTESIAN_POINT('',(-42.30119425302,-25.,26.953761250442));
#882 = CARTESIAN_POINT('',(-39.79104767206,-25.,30.537986008922));
#883 = CARTESIAN_POINT('',(-36.97807988705,-25.,33.889798241097));
#884 = CARTESIAN_POINT('',(-33.88363920693,-25.,36.983688695582));
#885 = CARTESIAN_POINT('',(-30.53150039452,-24.99999999999,
    39.796110760592));
#886 = CARTESIAN_POINT('',(-26.94633852154,-25.,42.305661091581));
#887 = CARTESIAN_POINT('',(-23.15856154879,-24.99999999999,
    44.493237190283));
#888 = CARTESIAN_POINT('',(-19.18534261815,-25.00000000003,
    46.342202615894));
#889 = CARTESIAN_POINT('',(-15.1004141227,-24.99999999987,47.83843959322
    ));
#890 = CARTESIAN_POINT('',(-10.77254377109,-25.00000000047,
    48.970732648691));
#891 = CARTESIAN_POINT('',(-6.872163302892,-24.99999999824,
    49.723702817903));
#892 = CARTESIAN_POINT('',(-3.088471810568,-25.00000000368,
    49.978620853509));
#893 = CARTESIAN_POINT('',(2.180969368267,-25.,50.047588920907));
#894 = PCURVE('',#666,#895);
#895 = DEFINITIONAL_REPRESENTATION('',(#896),#900);
#896 = LINE('',#897,#898);
#897 = CARTESIAN_POINT('',(3.,0.));
#898 = VECTOR('',#899,1.);
#899 = DIRECTION('',(0.,1.));
#900 = ( GEOMETRIC_REPRESENTATION_CONTEXT(2) 
PARAMETRIC_REPRESENTATION_CONTEXT() REPRESENTATION_CONTEXT('2D SPACE',''
  ) );
#901 = PCURVE('',#450,#902);
#902 = DEFINITIONAL_REPRESENTATION('',(#903),#907);
#903 = LINE('',#904,#905);
#904 = CARTESIAN_POINT('',(3.,0.));
#905 = VECTOR('',#906,1.);
#906 = DIRECTION('',(0.,1.));
#907 = ( GEOMETRIC_REPRESENTATION_CONTEXT(2) 
PARAMETRIC_REPRESENTATION_CONTEXT() REPRESENTATION_CONTEXT('2D SPACE',''
  ) );
#908 = ORIENTED_EDGE('',*,*,#909,.F.);
#909 = EDGE_CURVE('',#597,#833,#910,.T.);
#910 = SURFACE_CURVE('',#911,(#914,#921),.PCURVE_S1.);
#911 = B_SPLINE_CURVE_WITH_KNOTS('',1,(#912,#913),.UNSPECIFIED.,.F.,.F.,
  (2,2),(2.,3.),.PIECEWISE_BEZIER_KNOTS.);
#912 = CARTESIAN_POINT('',(-2.180969368267,-25.,149.95241107909));
#913 = CARTESIAN_POINT('',(2.180969368267,-25.,50.047588920907));
#914 = PCURVE('',#666,#915);
#915 = DEFINITIONAL_REPRESENTATION('',(#916),#920);
#916 = LINE('',#917,#918);
#917 = CARTESIAN_POINT('',(0.,1.));
#918 = VECTOR('',#919,1.);
#919 = DIRECTION('',(1.,0.));
#920 = ( GEOMETRIC_REPRESENTATION_CONTEXT(2) 
PARAMETRIC_REPRESENTATION_CONTEXT() REPRESENTATION_CONTEXT('2D SPACE',''
  ) );
#921 = PCURVE('',#371,#922);
#922 = DEFINITIONAL_REPRESENTATION('',(#923),#926);
#923 = B_SPLINE_CURVE_WITH_KNOTS('',1,(#924,#925),.UNSPECIFIED.,.F.,.F.,
  (2,2),(2.,3.),.PIECEWISE_BEZIER_KNOTS.);
#924 = CARTESIAN_POINT('',(111.80339887498,0.));
#925 = CARTESIAN_POINT('',(22.360679774998,-44.72135954999));
#926 = ( GEOMETRIC_REPRESENTATION_CONTEXT(2) 
PARAMETRIC_REPRESENTATION_CONTEXT() REPRESENTATION_CONTEXT('2D SPACE',''
  ) );
#927 = ORIENTED_EDGE('',*,*,#596,.F.);
#928 = ADVANCED_FACE('',(#929),#450,.T.);
#929 = FACE_BOUND('',#930,.T.);
#930 = EDGE_LOOP('',(#931,#950,#951,#970));
#931 = ORIENTED_EDGE('',*,*,#932,.T.);
#932 = EDGE_CURVE('',#812,#22,#933,.T.);
#933 = SURFACE_CURVE('',#934,(#937,#944),.PCURVE_S1.);
#934 = B_SPLINE_CURVE_WITH_KNOTS('',1,(#935,#936),.UNSPECIFIED.,.F.,.F.,
  (2,2),(3.,4.),.PIECEWISE_BEZIER_KNOTS.);
#935 = CARTESIAN_POINT('',(50.047588920907,-25.,2.180969368267));
#936 = CARTESIAN_POINT('',(50.047588920907,25.,2.180969368267));
#937 = PCURVE('',#450,#938);
#938 = DEFINITIONAL_REPRESENTATION('',(#939),#943);
#939 = LINE('',#940,#941);
#940 = CARTESIAN_POINT('',(0.,0.));
#941 = VECTOR('',#942,1.);
#942 = DIRECTION('',(1.,0.));
#943 = ( GEOMETRIC_REPRESENTATION_CONTEXT(2) 
PARAMETRIC_REPRESENTATION_CONTEXT() REPRESENTATION_CONTEXT('2D SPACE',''
  ) );
#944 = PCURVE('',#153,#945);
#945 = DEFINITIONAL_REPRESENTATION('',(#946),#949);
#946 = B_SPLINE_CURVE_WITH_KNOTS('',1,(#947,#948),.UNSPECIFIED.,.F.,.F.,
  (2,2),(3.,4.),.PIECEWISE_BEZIER_KNOTS.);
#947 = CARTESIAN_POINT('',(22.360679774998,-44.72135954999));
#948 = CARTESIAN_POINT('',(0.,0.));
#949 = ( GEOMETRIC_REPRESENTATION_CONTEXT(2) 
PARAMETRIC_REPRESENTATION_CONTEXT() REPRESENTATION_CONTEXT('2D SPACE',''
  ) );
#950 = ORIENTED_EDGE('',*,*,#382,.T.);
#951 = ORIENTED_EDGE('',*,*,#952,.F.);
#952 = EDGE_CURVE('',#833,#357,#953,.T.);
#953 = SURFACE_CURVE('',#954,(#957,#964),.PCURVE_S1.);
#954 = B_SPLINE_CURVE_WITH_KNOTS('',1,(#955,#956),.UNSPECIFIED.,.F.,.F.,
  (2,2),(3.,4.),.PIECEWISE_BEZIER_KNOTS.);
#955 = CARTESIAN_POINT('',(2.180969368267,-25.,50.047588920907));
#956 = CARTESIAN_POINT('',(2.180969368267,25.,50.047588920907));
#957 = PCURVE('',#450,#958);
#958 = DEFINITIONAL_REPRESENTATION('',(#959),#963);
#959 = LINE('',#960,#961);
#960 = CARTESIAN_POINT('',(0.,1.));
#961 = VECTOR('',#962,1.);
#962 = DIRECTION('',(1.,0.));
#963 = ( GEOMETRIC_REPRESENTATION_CONTEXT(2) 
PARAMETRIC_REPRESENTATION_CONTEXT() REPRESENTATION_CONTEXT('2D SPACE',''
  ) );
#964 = PCURVE('',#371,#965);
#965 = DEFINITIONAL_REPRESENTATION('',(#966),#969);
#966 = B_SPLINE_CURVE_WITH_KNOTS('',1,(#967,#968),.UNSPECIFIED.,.F.,.F.,
  (2,2),(3.,4.),.PIECEWISE_BEZIER_KNOTS.);
#967 = CARTESIAN_POINT('',(22.360679774998,-44.72135954999));
#968 = CARTESIAN_POINT('',(0.,0.));
#969 = ( GEOMETRIC_REPRESENTATION_CONTEXT(2) 
PARAMETRIC_REPRESENTATION_CONTEXT() REPRESENTATION_CONTEXT('2D SPACE',''
  ) );
#970 = ORIENTED_EDGE('',*,*,#832,.F.);
#971 = ADVANCED_FACE('',(#972),#153,.T.);
#972 = FACE_BOUND('',#973,.T.);
#973 = EDGE_LOOP('',(#974,#975,#976,#977));
#974 = ORIENTED_EDGE('',*,*,#21,.F.);
#975 = ORIENTED_EDGE('',*,*,#932,.F.);
#976 = ORIENTED_EDGE('',*,*,#811,.F.);
#977 = ORIENTED_EDGE('',*,*,#575,.F.);
#978 = ADVANCED_FACE('',(#979),#371,.F.);
#979 = FACE_BOUND('',#980,.T.);
#980 = EDGE_LOOP('',(#981,#982,#983,#984));
#981 = ORIENTED_EDGE('',*,*,#356,.T.);
#982 = ORIENTED_EDGE('',*,*,#788,.T.);
#983 = ORIENTED_EDGE('',*,*,#909,.T.);
#984 = ORIENTED_EDGE('',*,*,#952,.T.);
#985 = ( GEOMETRIC_REPRESENTATION_CONTEXT(3) 
GLOBAL_UNCERTAINTY_ASSIGNED_CONTEXT((#989)) GLOBAL_UNIT_ASSIGNED_CONTEXT
((#986,#987,#988)) REPRESENTATION_CONTEXT('Context #1',
  '3D Context with UNIT and UNCERTAINTY') );
#986 = ( LENGTH_UNIT() NAMED_UNIT(*) SI_UNIT(.MILLI.,.METRE.) );
#987 = ( NAMED_UNIT(*) PLANE_ANGLE_UNIT() SI_UNIT($,.RADIAN.) );
#988 = ( NAMED_UNIT(*) SI_UNIT($,.STERADIAN.) SOLID_ANGLE_UNIT() );
#989 = UNCERTAINTY_MEASURE_WITH_UNIT(LENGTH_MEASURE(1.E-07),#986,
  'distance_accuracy_value','confusion accuracy');
#990 = PRODUCT_RELATED_PRODUCT_CATEGORY('part',$,(#7));
ENDSEC;
END-ISO-10303-21;
